<?xml version="1.0" encoding="UTF-8" standalone="no"?>
<!DOCTYPE svg PUBLIC "-//W3C//DTD SVG 1.1//EN"
 "http://www.w3.org/Graphics/SVG/1.1/DTD/svg11.dtd">
<!-- Generated by graphviz version 8.0.5 (20230506.1012)
 -->
<!-- Title: snakemake_dag Pages: 1 -->
<svg width="1338pt" height="620pt"
 viewBox="0.00 0.00 1337.50 620.00" xmlns="http://www.w3.org/2000/svg" xmlns:xlink="http://www.w3.org/1999/xlink">
<g id="graph0" class="graph" transform="scale(1 1) rotate(0) translate(4 616)">
<title>snakemake_dag</title>
<polygon fill="white" stroke="none" points="-4,4 -4,-616 1333.5,-616 1333.5,4 -4,4"/>
<!-- 0 -->
<g id="node1" class="node">
<title>0</title>
<path fill="none" stroke="#d85656" stroke-width="2" d="M568.62,-36C568.62,-36 538.62,-36 538.62,-36 532.62,-36 526.62,-30 526.62,-24 526.62,-24 526.62,-12 526.62,-12 526.62,-6 532.62,0 538.62,0 538.62,0 568.62,0 568.62,0 574.62,0 580.62,-6 580.62,-12 580.62,-12 580.62,-24 580.62,-24 580.62,-30 574.62,-36 568.62,-36"/>
<text text-anchor="middle" x="553.62" y="-14.88" font-family="sans" font-size="10.00">all</text>
</g>
<!-- 1 -->
<g id="node2" class="node">
<title>1</title>
<path fill="none" stroke="#56d8a2" stroke-width="2" d="M519,-108C519,-108 454.25,-108 454.25,-108 448.25,-108 442.25,-102 442.25,-96 442.25,-96 442.25,-84 442.25,-84 442.25,-78 448.25,-72 454.25,-72 454.25,-72 519,-72 519,-72 525,-72 531,-78 531,-84 531,-84 531,-96 531,-96 531,-102 525,-108 519,-108"/>
<text text-anchor="middle" x="486.62" y="-86.88" font-family="sans" font-size="10.00">plot_mosdepth</text>
</g>
<!-- 1&#45;&gt;0 -->
<g id="edge1" class="edge">
<title>1&#45;&gt;0</title>
<path fill="none" stroke="grey" stroke-width="2" d="M503.53,-71.34C510.86,-63.69 519.59,-54.56 527.71,-46.08"/>
<polygon fill="grey" stroke="grey" stroke-width="2" points="530.1,-48.55 534.49,-38.9 525.05,-43.71 530.1,-48.55"/>
</g>
<!-- 2 -->
<g id="node3" class="node">
<title>2</title>
<path fill="none" stroke="#78d856" stroke-width="2" d="M491,-180C491,-180 450.25,-180 450.25,-180 444.25,-180 438.25,-174 438.25,-168 438.25,-168 438.25,-156 438.25,-156 438.25,-150 444.25,-144 450.25,-144 450.25,-144 491,-144 491,-144 497,-144 503,-150 503,-156 503,-156 503,-168 503,-168 503,-174 497,-180 491,-180"/>
<text text-anchor="middle" x="470.62" y="-158.88" font-family="sans" font-size="10.00">mosdepth</text>
</g>
<!-- 2&#45;&gt;1 -->
<g id="edge3" class="edge">
<title>2&#45;&gt;1</title>
<path fill="none" stroke="grey" stroke-width="2" d="M474.66,-143.34C476.19,-136.67 477.97,-128.89 479.68,-121.39"/>
<polygon fill="grey" stroke="grey" stroke-width="2" points="483.72,-121.43 482.53,-110.9 476.89,-119.87 483.72,-121.43"/>
</g>
<!-- 22 -->
<g id="node23" class="node">
<title>22</title>
<path fill="none" stroke="#56d8c9" stroke-width="2" d="M634.25,-108C634.25,-108 577,-108 577,-108 571,-108 565,-102 565,-96 565,-96 565,-84 565,-84 565,-78 571,-72 577,-72 577,-72 634.25,-72 634.25,-72 640.25,-72 646.25,-78 646.25,-84 646.25,-84 646.25,-96 646.25,-96 646.25,-102 640.25,-108 634.25,-108"/>
<text text-anchor="middle" x="605.62" y="-86.88" font-family="sans" font-size="10.00">sample_stats</text>
</g>
<!-- 2&#45;&gt;22 -->
<g id="edge37" class="edge">
<title>2&#45;&gt;22</title>
<path fill="none" stroke="grey" stroke-width="2" d="M504,-143.7C520.86,-134.95 541.57,-124.21 559.89,-114.71"/>
<polygon fill="grey" stroke="grey" stroke-width="2" points="561.96,-117.55 569.23,-109.84 558.74,-111.33 561.96,-117.55"/>
</g>
<!-- 3 -->
<g id="node4" class="node">
<title>3</title>
<path fill="none" stroke="#56d87b" stroke-width="2" d="M597.12,-324C597.12,-324 494.12,-324 494.12,-324 488.12,-324 482.12,-318 482.12,-312 482.12,-312 482.12,-300 482.12,-300 482.12,-294 488.12,-288 494.12,-288 494.12,-288 597.12,-288 597.12,-288 603.12,-288 609.12,-294 609.12,-300 609.12,-300 609.12,-312 609.12,-312 609.12,-318 603.12,-324 597.12,-324"/>
<text text-anchor="middle" x="545.62" y="-302.88" font-family="sans" font-size="10.00">picard_markduplicates</text>
</g>
<!-- 3&#45;&gt;2 -->
<g id="edge6" class="edge">
<title>3&#45;&gt;2</title>
<path fill="none" stroke="grey" stroke-width="2" d="M481.46,-294.88C456.26,-287.43 429.78,-274.48 414.62,-252 405.68,-238.73 408.3,-230.7 414.62,-216 418.91,-206.03 426.1,-197.07 433.92,-189.46"/>
<polygon fill="grey" stroke="grey" stroke-width="2" points="436.44,-192.14 441.62,-182.89 431.81,-186.89 436.44,-192.14"/>
</g>
<!-- 9 -->
<g id="node10" class="node">
<title>9</title>
<path fill="none" stroke="#56a2d8" stroke-width="2" d="M505.25,-252C505.25,-252 436,-252 436,-252 430,-252 424,-246 424,-240 424,-240 424,-228 424,-228 424,-222 430,-216 436,-216 436,-216 505.25,-216 505.25,-216 511.25,-216 517.25,-222 517.25,-228 517.25,-228 517.25,-240 517.25,-240 517.25,-246 511.25,-252 505.25,-252"/>
<text text-anchor="middle" x="470.62" y="-230.88" font-family="sans" font-size="10.00">samtools_index</text>
</g>
<!-- 3&#45;&gt;9 -->
<g id="edge14" class="edge">
<title>3&#45;&gt;9</title>
<path fill="none" stroke="grey" stroke-width="2" d="M526.7,-287.34C518.33,-279.52 508.3,-270.16 499.05,-261.53"/>
<polygon fill="grey" stroke="grey" stroke-width="2" points="501.5,-259.17 491.81,-254.9 496.73,-264.28 501.5,-259.17"/>
</g>
<!-- 3&#45;&gt;22 -->
<g id="edge34" class="edge">
<title>3&#45;&gt;22</title>
<path fill="none" stroke="grey" stroke-width="2" d="M544.7,-287.32C543.74,-256.85 544.61,-192.98 564.62,-144 568.32,-134.97 573.99,-126.16 579.95,-118.41"/>
<polygon fill="grey" stroke="grey" stroke-width="2" points="583.42,-120.5 587.1,-110.56 578.03,-116.04 583.42,-120.5"/>
</g>
<!-- 23 -->
<g id="node24" class="node">
<title>23</title>
<path fill="none" stroke="#59d856" stroke-width="2" d="M713.5,-252C713.5,-252 585.75,-252 585.75,-252 579.75,-252 573.75,-246 573.75,-240 573.75,-240 573.75,-228 573.75,-228 573.75,-222 579.75,-216 585.75,-216 585.75,-216 713.5,-216 713.5,-216 719.5,-216 725.5,-222 725.5,-228 725.5,-228 725.5,-240 725.5,-240 725.5,-246 719.5,-252 713.5,-252"/>
<text text-anchor="middle" x="649.62" y="-230.88" font-family="sans" font-size="10.00">picard_collectgcbiasmetrics</text>
</g>
<!-- 3&#45;&gt;23 -->
<g id="edge43" class="edge">
<title>3&#45;&gt;23</title>
<path fill="none" stroke="grey" stroke-width="2" d="M572.14,-287.15C584.36,-278.93 599.08,-269.02 612.4,-260.06"/>
<polygon fill="grey" stroke="grey" stroke-width="2" points="614.82,-262.3 621.16,-253.81 610.91,-256.49 614.82,-262.3"/>
</g>
<!-- 4 -->
<g id="node5" class="node">
<title>4</title>
<path fill="none" stroke="#c6d856" stroke-width="2" d="M584.12,-396C584.12,-396 541.12,-396 541.12,-396 535.12,-396 529.12,-390 529.12,-384 529.12,-384 529.12,-372 529.12,-372 529.12,-366 535.12,-360 541.12,-360 541.12,-360 584.12,-360 584.12,-360 590.12,-360 596.12,-366 596.12,-372 596.12,-372 596.12,-384 596.12,-384 596.12,-390 590.12,-396 584.12,-396"/>
<text text-anchor="middle" x="562.62" y="-374.88" font-family="sans" font-size="10.00">bwa_mem</text>
</g>
<!-- 4&#45;&gt;3 -->
<g id="edge9" class="edge">
<title>4&#45;&gt;3</title>
<path fill="none" stroke="grey" stroke-width="2" d="M558.34,-359.34C556.72,-352.67 554.83,-344.89 553.01,-337.39"/>
<polygon fill="grey" stroke="grey" stroke-width="2" points="555.73,-335.79 549.97,-326.9 548.93,-337.45 555.73,-335.79"/>
</g>
<!-- 4&#45;&gt;22 -->
<g id="edge31" class="edge">
<title>4&#45;&gt;22</title>
<path fill="none" stroke="grey" stroke-width="2" d="M597.08,-363.57C638.46,-345.34 705.89,-308.41 734.62,-252 762.09,-198.08 697.12,-145.2 649.75,-115.48"/>
<polygon fill="grey" stroke="grey" stroke-width="2" points="651.12,-112 640.76,-109.79 647.48,-117.98 651.12,-112"/>
</g>
<!-- 5 -->
<g id="node6" class="node">
<title>5</title>
<path fill="none" stroke="#9fd856" stroke-width="2" d="M640.38,-468C640.38,-468 520.88,-468 520.88,-468 514.88,-468 508.88,-462 508.88,-456 508.88,-456 508.88,-444 508.88,-444 508.88,-438 514.88,-432 520.88,-432 520.88,-432 640.38,-432 640.38,-432 646.38,-432 652.38,-438 652.38,-444 652.38,-444 652.38,-456 652.38,-456 652.38,-462 646.38,-468 640.38,-468"/>
<text text-anchor="middle" x="580.62" y="-453.25" font-family="sans" font-size="10.00">fastp</text>
<text text-anchor="middle" x="580.62" y="-440.5" font-family="sans" font-size="10.00">sample: S3_Arab_Full_S15</text>
</g>
<!-- 5&#45;&gt;4 -->
<g id="edge10" class="edge">
<title>5&#45;&gt;4</title>
<path fill="none" stroke="grey" stroke-width="2" d="M576.08,-431.34C574.37,-424.67 572.37,-416.89 570.44,-409.39"/>
<polygon fill="grey" stroke="grey" stroke-width="2" points="573.11,-407.72 567.23,-398.9 566.33,-409.46 573.11,-407.72"/>
</g>
<!-- 6 -->
<g id="node7" class="node">
<title>6</title>
<path fill="none" stroke="#d8c356" stroke-width="2" d="M478.88,-468C478.88,-468 434.38,-468 434.38,-468 428.38,-468 422.38,-462 422.38,-456 422.38,-456 422.38,-444 422.38,-444 422.38,-438 428.38,-432 434.38,-432 434.38,-432 478.88,-432 478.88,-432 484.88,-432 490.88,-438 490.88,-444 490.88,-444 490.88,-456 490.88,-456 490.88,-462 484.88,-468 478.88,-468"/>
<text text-anchor="middle" x="456.62" y="-446.88" font-family="sans" font-size="10.00">bwa_index</text>
</g>
<!-- 6&#45;&gt;4 -->
<g id="edge11" class="edge">
<title>6&#45;&gt;4</title>
<path fill="none" stroke="grey" stroke-width="2" d="M483.65,-431.15C496.23,-422.84 511.41,-412.82 525.09,-403.79"/>
<polygon fill="grey" stroke="grey" stroke-width="2" points="527.24,-406.24 533.65,-397.81 523.38,-400.4 527.24,-406.24"/>
</g>
<!-- 14 -->
<g id="node15" class="node">
<title>14</title>
<path fill="none" stroke="#c6d856" stroke-width="2" d="M227.12,-396C227.12,-396 184.12,-396 184.12,-396 178.12,-396 172.12,-390 172.12,-384 172.12,-384 172.12,-372 172.12,-372 172.12,-366 178.12,-360 184.12,-360 184.12,-360 227.12,-360 227.12,-360 233.12,-360 239.12,-366 239.12,-372 239.12,-372 239.12,-384 239.12,-384 239.12,-390 233.12,-396 227.12,-396"/>
<text text-anchor="middle" x="205.62" y="-374.88" font-family="sans" font-size="10.00">bwa_mem</text>
</g>
<!-- 6&#45;&gt;14 -->
<g id="edge22" class="edge">
<title>6&#45;&gt;14</title>
<path fill="none" stroke="grey" stroke-width="2" d="M421.51,-439.67C382.6,-429.27 318.02,-411.82 262.62,-396 259.3,-395.05 255.86,-394.06 252.4,-393.05"/>
<polygon fill="grey" stroke="grey" stroke-width="2" points="252.53,-388.85 241.95,-389.38 250.55,-395.56 252.53,-388.85"/>
</g>
<!-- 19 -->
<g id="node20" class="node">
<title>19</title>
<path fill="none" stroke="#c6d856" stroke-width="2" d="M1069.12,-396C1069.12,-396 1026.12,-396 1026.12,-396 1020.12,-396 1014.12,-390 1014.12,-384 1014.12,-384 1014.12,-372 1014.12,-372 1014.12,-366 1020.12,-360 1026.12,-360 1026.12,-360 1069.12,-360 1069.12,-360 1075.12,-360 1081.12,-366 1081.12,-372 1081.12,-372 1081.12,-384 1081.12,-384 1081.12,-390 1075.12,-396 1069.12,-396"/>
<text text-anchor="middle" x="1047.62" y="-374.88" font-family="sans" font-size="10.00">bwa_mem</text>
</g>
<!-- 6&#45;&gt;19 -->
<g id="edge29" class="edge">
<title>6&#45;&gt;19</title>
<path fill="none" stroke="grey" stroke-width="2" d="M491.56,-434.26C494.26,-433.41 496.97,-432.64 499.62,-432 681.15,-388.26 904.74,-380.41 1000.49,-379.15"/>
<polygon fill="grey" stroke="grey" stroke-width="2" points="1000.44,-382.62 1010.41,-379.01 1000.37,-375.62 1000.44,-382.62"/>
</g>
<!-- 7 -->
<g id="node8" class="node">
<title>7</title>
<path fill="none" stroke="#d8a456" stroke-width="2" d="M491.62,-540C491.62,-540 421.62,-540 421.62,-540 415.62,-540 409.62,-534 409.62,-528 409.62,-528 409.62,-516 409.62,-516 409.62,-510 415.62,-504 421.62,-504 421.62,-504 491.62,-504 491.62,-504 497.62,-504 503.62,-510 503.62,-516 503.62,-516 503.62,-528 503.62,-528 503.62,-534 497.62,-540 491.62,-540"/>
<text text-anchor="middle" x="456.62" y="-518.88" font-family="sans" font-size="10.00">bgzip_reference</text>
</g>
<!-- 7&#45;&gt;6 -->
<g id="edge12" class="edge">
<title>7&#45;&gt;6</title>
<path fill="none" stroke="grey" stroke-width="2" d="M456.62,-503.34C456.62,-496.75 456.62,-489.08 456.62,-481.67"/>
<polygon fill="grey" stroke="grey" stroke-width="2" points="460.13,-481.9 456.62,-471.9 453.13,-481.9 460.13,-481.9"/>
</g>
<!-- 11 -->
<g id="node12" class="node">
<title>11</title>
<path fill="none" stroke="#56c9d8" stroke-width="2" d="M351.12,-396C351.12,-396 284.12,-396 284.12,-396 278.12,-396 272.12,-390 272.12,-384 272.12,-384 272.12,-372 272.12,-372 272.12,-366 278.12,-360 284.12,-360 284.12,-360 351.12,-360 351.12,-360 357.12,-360 363.12,-366 363.12,-372 363.12,-372 363.12,-384 363.12,-384 363.12,-390 357.12,-396 351.12,-396"/>
<text text-anchor="middle" x="317.62" y="-374.88" font-family="sans" font-size="10.00">samtools_faidx</text>
</g>
<!-- 7&#45;&gt;11 -->
<g id="edge16" class="edge">
<title>7&#45;&gt;11</title>
<path fill="none" stroke="grey" stroke-width="2" d="M439.02,-503.02C415,-478.48 371.76,-434.3 343.9,-405.84"/>
<polygon fill="grey" stroke="grey" stroke-width="2" points="346.58,-403.54 337.09,-398.84 341.58,-408.43 346.58,-403.54"/>
</g>
<!-- 8 -->
<g id="node9" class="node">
<title>8</title>
<path fill="none" stroke="#567bd8" stroke-width="2" d="M890.88,-612C890.88,-612 648.38,-612 648.38,-612 642.38,-612 636.38,-606 636.38,-600 636.38,-600 636.38,-588 636.38,-588 636.38,-582 642.38,-576 648.38,-576 648.38,-576 890.88,-576 890.88,-576 896.88,-576 902.88,-582 902.88,-588 902.88,-588 902.88,-600 902.88,-600 902.88,-606 896.88,-612 890.88,-612"/>
<text text-anchor="middle" x="769.62" y="-597.25" font-family="sans" font-size="10.00">wget_reference</text>
<text text-anchor="middle" x="769.62" y="-584.5" font-family="sans" font-size="10.00">name: GCF_000001735.4_TAIR10.1_genomic.fna.gz</text>
</g>
<!-- 8&#45;&gt;7 -->
<g id="edge13" class="edge">
<title>8&#45;&gt;7</title>
<path fill="none" stroke="grey" stroke-width="2" d="M689.43,-575.06C635.72,-563.05 566.14,-547.49 517.09,-536.52"/>
<polygon fill="grey" stroke="grey" stroke-width="2" points="516.98,-532.46 506.46,-533.7 515.45,-539.3 516.98,-532.46"/>
</g>
<!-- 8&#45;&gt;23 -->
<g id="edge44" class="edge">
<title>8&#45;&gt;23</title>
<path fill="none" stroke="grey" stroke-width="2" d="M749.88,-575.4C724.21,-550.47 682.62,-502.17 682.62,-451 682.62,-451 682.62,-451 682.62,-377 682.62,-337.45 670.33,-293.28 660.75,-264.86"/>
<polygon fill="grey" stroke="grey" stroke-width="2" points="664.07,-262.91 657.46,-254.63 657.47,-265.22 664.07,-262.91"/>
</g>
<!-- 24 -->
<g id="node25" class="node">
<title>24</title>
<path fill="none" stroke="#59d856" stroke-width="2" d="M921.5,-252C921.5,-252 793.75,-252 793.75,-252 787.75,-252 781.75,-246 781.75,-240 781.75,-240 781.75,-228 781.75,-228 781.75,-222 787.75,-216 793.75,-216 793.75,-216 921.5,-216 921.5,-216 927.5,-216 933.5,-222 933.5,-228 933.5,-228 933.5,-240 933.5,-240 933.5,-246 927.5,-252 921.5,-252"/>
<text text-anchor="middle" x="857.62" y="-230.88" font-family="sans" font-size="10.00">picard_collectgcbiasmetrics</text>
</g>
<!-- 8&#45;&gt;24 -->
<g id="edge46" class="edge">
<title>8&#45;&gt;24</title>
<path fill="none" stroke="grey" stroke-width="2" d="M781.56,-575.03C797.74,-548.89 824.62,-498.32 824.62,-451 824.62,-451 824.62,-451 824.62,-377 824.62,-337.45 836.92,-293.28 846.5,-264.86"/>
<polygon fill="grey" stroke="grey" stroke-width="2" points="849.78,-265.22 849.79,-254.63 843.18,-262.91 849.78,-265.22"/>
</g>
<!-- 25 -->
<g id="node26" class="node">
<title>25</title>
<path fill="none" stroke="#59d856" stroke-width="2" d="M1317.5,-252C1317.5,-252 1189.75,-252 1189.75,-252 1183.75,-252 1177.75,-246 1177.75,-240 1177.75,-240 1177.75,-228 1177.75,-228 1177.75,-222 1183.75,-216 1189.75,-216 1189.75,-216 1317.5,-216 1317.5,-216 1323.5,-216 1329.5,-222 1329.5,-228 1329.5,-228 1329.5,-240 1329.5,-240 1329.5,-246 1323.5,-252 1317.5,-252"/>
<text text-anchor="middle" x="1253.62" y="-230.88" font-family="sans" font-size="10.00">picard_collectgcbiasmetrics</text>
</g>
<!-- 8&#45;&gt;25 -->
<g id="edge48" class="edge">
<title>8&#45;&gt;25</title>
<path fill="none" stroke="grey" stroke-width="2" d="M903.72,-577.06C1036.66,-557.42 1220.62,-518.11 1220.62,-451 1220.62,-451 1220.62,-451 1220.62,-377 1220.62,-337.45 1232.92,-293.28 1242.5,-264.86"/>
<polygon fill="grey" stroke="grey" stroke-width="2" points="1245.78,-265.22 1245.79,-254.63 1239.18,-262.91 1245.78,-265.22"/>
</g>
<!-- 9&#45;&gt;2 -->
<g id="edge7" class="edge">
<title>9&#45;&gt;2</title>
<path fill="none" stroke="grey" stroke-width="2" d="M470.62,-215.34C470.62,-208.75 470.62,-201.08 470.62,-193.67"/>
<polygon fill="grey" stroke="grey" stroke-width="2" points="474.13,-193.9 470.62,-183.9 467.13,-193.9 474.13,-193.9"/>
</g>
<!-- 10 -->
<g id="node11" class="node">
<title>10</title>
<path fill="none" stroke="#d87d56" stroke-width="2" d="M355.12,-252C355.12,-252 246.12,-252 246.12,-252 240.12,-252 234.12,-246 234.12,-240 234.12,-240 234.12,-228 234.12,-228 234.12,-222 240.12,-216 246.12,-216 246.12,-216 355.12,-216 355.12,-216 361.12,-216 367.12,-222 367.12,-228 367.12,-228 367.12,-240 367.12,-240 367.12,-246 361.12,-252 355.12,-252"/>
<text text-anchor="middle" x="300.62" y="-230.88" font-family="sans" font-size="10.00">bedtools_makewindows</text>
</g>
<!-- 10&#45;&gt;2 -->
<g id="edge8" class="edge">
<title>10&#45;&gt;2</title>
<path fill="none" stroke="grey" stroke-width="2" d="M343.96,-215.15C368.9,-204.89 400.2,-192 425.44,-181.61"/>
<polygon fill="grey" stroke="grey" stroke-width="2" points="427.38,-184.77 435.29,-177.73 424.71,-178.3 427.38,-184.77"/>
</g>
<!-- 12 -->
<g id="node13" class="node">
<title>12</title>
<path fill="none" stroke="#78d856" stroke-width="2" d="M128,-180C128,-180 87.25,-180 87.25,-180 81.25,-180 75.25,-174 75.25,-168 75.25,-168 75.25,-156 75.25,-156 75.25,-150 81.25,-144 87.25,-144 87.25,-144 128,-144 128,-144 134,-144 140,-150 140,-156 140,-156 140,-168 140,-168 140,-174 134,-180 128,-180"/>
<text text-anchor="middle" x="107.62" y="-158.88" font-family="sans" font-size="10.00">mosdepth</text>
</g>
<!-- 10&#45;&gt;12 -->
<g id="edge19" class="edge">
<title>10&#45;&gt;12</title>
<path fill="none" stroke="grey" stroke-width="2" d="M251.17,-215.06C220.88,-204.08 182.39,-190.12 152.9,-179.42"/>
<polygon fill="grey" stroke="grey" stroke-width="2" points="153.45,-176.17 142.86,-176.05 151.07,-182.75 153.45,-176.17"/>
</g>
<!-- 17 -->
<g id="node18" class="node">
<title>17</title>
<path fill="none" stroke="#78d856" stroke-width="2" d="M626,-180C626,-180 585.25,-180 585.25,-180 579.25,-180 573.25,-174 573.25,-168 573.25,-168 573.25,-156 573.25,-156 573.25,-150 579.25,-144 585.25,-144 585.25,-144 626,-144 626,-144 632,-144 638,-150 638,-156 638,-156 638,-168 638,-168 638,-174 632,-180 626,-180"/>
<text text-anchor="middle" x="605.62" y="-158.88" font-family="sans" font-size="10.00">mosdepth</text>
</g>
<!-- 10&#45;&gt;17 -->
<g id="edge26" class="edge">
<title>10&#45;&gt;17</title>
<path fill="none" stroke="grey" stroke-width="2" d="M367.94,-217.55C426.19,-204.18 508.87,-185.2 559.79,-173.52"/>
<polygon fill="grey" stroke="grey" stroke-width="2" points="561.36,-176.29 570.32,-170.64 559.79,-169.47 561.36,-176.29"/>
</g>
<!-- 11&#45;&gt;10 -->
<g id="edge15" class="edge">
<title>11&#45;&gt;10</title>
<path fill="none" stroke="grey" stroke-width="2" d="M315.47,-359.02C312.66,-335.54 307.7,-294.11 304.29,-265.64"/>
<polygon fill="grey" stroke="grey" stroke-width="2" points="307.42,-265.35 302.76,-255.84 300.47,-266.18 307.42,-265.35"/>
</g>
<!-- 12&#45;&gt;1 -->
<g id="edge4" class="edge">
<title>12&#45;&gt;1</title>
<path fill="none" stroke="grey" stroke-width="2" d="M140.79,-147.87C145.07,-146.44 149.42,-145.1 153.62,-144 248.4,-119.2 361.56,-104.18 428.57,-96.74"/>
<polygon fill="grey" stroke="grey" stroke-width="2" points="428.78,-99.92 438.34,-95.36 428.02,-92.96 428.78,-99.92"/>
</g>
<!-- 12&#45;&gt;22 -->
<g id="edge38" class="edge">
<title>12&#45;&gt;22</title>
<path fill="none" stroke="grey" stroke-width="2" d="M140.98,-147.53C145.19,-146.17 149.47,-144.94 153.62,-144 321.64,-105.81 369.88,-137.58 539.62,-108 543.65,-107.3 547.78,-106.48 551.93,-105.58"/>
<polygon fill="grey" stroke="grey" stroke-width="2" points="553.35,-108.38 562.3,-102.72 551.77,-101.56 553.35,-108.38"/>
</g>
<!-- 13 -->
<g id="node14" class="node">
<title>13</title>
<path fill="none" stroke="#56d87b" stroke-width="2" d="M165.12,-324C165.12,-324 62.12,-324 62.12,-324 56.12,-324 50.12,-318 50.12,-312 50.12,-312 50.12,-300 50.12,-300 50.12,-294 56.12,-288 62.12,-288 62.12,-288 165.12,-288 165.12,-288 171.12,-288 177.12,-294 177.12,-300 177.12,-300 177.12,-312 177.12,-312 177.12,-318 171.12,-324 165.12,-324"/>
<text text-anchor="middle" x="113.62" y="-302.88" font-family="sans" font-size="10.00">picard_markduplicates</text>
</g>
<!-- 13&#45;&gt;12 -->
<g id="edge17" class="edge">
<title>13&#45;&gt;12</title>
<path fill="none" stroke="grey" stroke-width="2" d="M112.87,-287.02C111.87,-263.54 110.12,-222.11 108.92,-193.64"/>
<polygon fill="grey" stroke="grey" stroke-width="2" points="112.3,-193.68 108.38,-183.84 105.3,-193.98 112.3,-193.68"/>
</g>
<!-- 16 -->
<g id="node17" class="node">
<title>16</title>
<path fill="none" stroke="#56a2d8" stroke-width="2" d="M81.25,-252C81.25,-252 12,-252 12,-252 6,-252 0,-246 0,-240 0,-240 0,-228 0,-228 0,-222 6,-216 12,-216 12,-216 81.25,-216 81.25,-216 87.25,-216 93.25,-222 93.25,-228 93.25,-228 93.25,-240 93.25,-240 93.25,-246 87.25,-252 81.25,-252"/>
<text text-anchor="middle" x="46.62" y="-230.88" font-family="sans" font-size="10.00">samtools_index</text>
</g>
<!-- 13&#45;&gt;16 -->
<g id="edge23" class="edge">
<title>13&#45;&gt;16</title>
<path fill="none" stroke="grey" stroke-width="2" d="M96.72,-287.34C89.39,-279.69 80.66,-270.56 72.54,-262.08"/>
<polygon fill="grey" stroke="grey" stroke-width="2" points="75.2,-259.71 65.76,-254.9 70.15,-264.55 75.2,-259.71"/>
</g>
<!-- 13&#45;&gt;22 -->
<g id="edge35" class="edge">
<title>13&#45;&gt;22</title>
<path fill="none" stroke="grey" stroke-width="2" d="M116.5,-287.07C123.03,-252.83 142.41,-178.5 191.62,-144 255.29,-99.37 463.1,-121.73 539.62,-108 543.64,-107.28 547.78,-106.44 551.92,-105.54"/>
<polygon fill="grey" stroke="grey" stroke-width="2" points="553.34,-108.33 562.29,-102.65 551.75,-101.52 553.34,-108.33"/>
</g>
<!-- 13&#45;&gt;24 -->
<g id="edge45" class="edge">
<title>13&#45;&gt;24</title>
<path fill="none" stroke="grey" stroke-width="2" d="M178.1,-300.61C291.04,-292.68 531.92,-274.64 734.62,-252 745.52,-250.78 756.94,-249.38 768.25,-247.91"/>
<polygon fill="grey" stroke="grey" stroke-width="2" points="768.48,-251.01 777.94,-246.23 767.56,-244.07 768.48,-251.01"/>
</g>
<!-- 14&#45;&gt;13 -->
<g id="edge20" class="edge">
<title>14&#45;&gt;13</title>
<path fill="none" stroke="grey" stroke-width="2" d="M182.41,-359.34C171.81,-351.27 159.06,-341.57 147.43,-332.72"/>
<polygon fill="grey" stroke="grey" stroke-width="2" points="149.23,-329.17 139.15,-325.9 144.99,-334.74 149.23,-329.17"/>
</g>
<!-- 14&#45;&gt;22 -->
<g id="edge32" class="edge">
<title>14&#45;&gt;22</title>
<path fill="none" stroke="grey" stroke-width="2" d="M202.18,-359.25C196.98,-326.93 191.02,-257.96 224.62,-216 245.63,-189.78 451.59,-132.03 551.63,-105.21"/>
<polygon fill="grey" stroke="grey" stroke-width="2" points="553.4,-107.82 562.15,-101.86 551.59,-101.06 553.4,-107.82"/>
</g>
<!-- 15 -->
<g id="node16" class="node">
<title>15</title>
<path fill="none" stroke="#9fd856" stroke-width="2" d="M265.38,-468C265.38,-468 145.88,-468 145.88,-468 139.88,-468 133.88,-462 133.88,-456 133.88,-456 133.88,-444 133.88,-444 133.88,-438 139.88,-432 145.88,-432 145.88,-432 265.38,-432 265.38,-432 271.38,-432 277.38,-438 277.38,-444 277.38,-444 277.38,-456 277.38,-456 277.38,-462 271.38,-468 265.38,-468"/>
<text text-anchor="middle" x="205.62" y="-453.25" font-family="sans" font-size="10.00">fastp</text>
<text text-anchor="middle" x="205.62" y="-440.5" font-family="sans" font-size="10.00">sample: S6_Arab_Full_S18</text>
</g>
<!-- 15&#45;&gt;14 -->
<g id="edge21" class="edge">
<title>15&#45;&gt;14</title>
<path fill="none" stroke="grey" stroke-width="2" d="M205.62,-431.34C205.62,-424.75 205.62,-417.08 205.62,-409.67"/>
<polygon fill="grey" stroke="grey" stroke-width="2" points="209.13,-409.9 205.62,-399.9 202.13,-409.9 209.13,-409.9"/>
</g>
<!-- 16&#45;&gt;12 -->
<g id="edge18" class="edge">
<title>16&#45;&gt;12</title>
<path fill="none" stroke="grey" stroke-width="2" d="M62.02,-215.34C68.54,-207.85 76.3,-198.95 83.55,-190.63"/>
<polygon fill="grey" stroke="grey" stroke-width="2" points="87.09,-192.74 91.02,-182.9 81.82,-188.14 87.09,-192.74"/>
</g>
<!-- 17&#45;&gt;1 -->
<g id="edge5" class="edge">
<title>17&#45;&gt;1</title>
<path fill="none" stroke="grey" stroke-width="2" d="M575.29,-143.15C560.88,-134.68 543.44,-124.42 527.86,-115.25"/>
<polygon fill="grey" stroke="grey" stroke-width="2" points="529.3,-111.87 518.91,-109.81 525.75,-117.9 529.3,-111.87"/>
</g>
<!-- 17&#45;&gt;22 -->
<g id="edge39" class="edge">
<title>17&#45;&gt;22</title>
<path fill="none" stroke="grey" stroke-width="2" d="M605.62,-143.34C605.62,-136.75 605.62,-129.08 605.62,-121.67"/>
<polygon fill="grey" stroke="grey" stroke-width="2" points="609.13,-121.9 605.62,-111.9 602.13,-121.9 609.13,-121.9"/>
</g>
<!-- 18 -->
<g id="node19" class="node">
<title>18</title>
<path fill="none" stroke="#56d87b" stroke-width="2" d="M1099.12,-324C1099.12,-324 996.12,-324 996.12,-324 990.12,-324 984.12,-318 984.12,-312 984.12,-312 984.12,-300 984.12,-300 984.12,-294 990.12,-288 996.12,-288 996.12,-288 1099.12,-288 1099.12,-288 1105.12,-288 1111.12,-294 1111.12,-300 1111.12,-300 1111.12,-312 1111.12,-312 1111.12,-318 1105.12,-324 1099.12,-324"/>
<text text-anchor="middle" x="1047.62" y="-302.88" font-family="sans" font-size="10.00">picard_markduplicates</text>
</g>
<!-- 18&#45;&gt;17 -->
<g id="edge24" class="edge">
<title>18&#45;&gt;17</title>
<path fill="none" stroke="grey" stroke-width="2" d="M1023.96,-287.1C1010.94,-277.06 994.64,-264.14 980.62,-252 963.04,-236.77 963.5,-226.27 942.62,-216 892.16,-191.17 731.08,-174.01 651.3,-166.81"/>
<polygon fill="grey" stroke="grey" stroke-width="2" points="652.03,-163.09 641.76,-165.7 651.42,-170.07 652.03,-163.09"/>
</g>
<!-- 21 -->
<g id="node22" class="node">
<title>21</title>
<path fill="none" stroke="#56a2d8" stroke-width="2" d="M1071.25,-252C1071.25,-252 1002,-252 1002,-252 996,-252 990,-246 990,-240 990,-240 990,-228 990,-228 990,-222 996,-216 1002,-216 1002,-216 1071.25,-216 1071.25,-216 1077.25,-216 1083.25,-222 1083.25,-228 1083.25,-228 1083.25,-240 1083.25,-240 1083.25,-246 1077.25,-252 1071.25,-252"/>
<text text-anchor="middle" x="1036.62" y="-230.88" font-family="sans" font-size="10.00">samtools_index</text>
</g>
<!-- 18&#45;&gt;21 -->
<g id="edge30" class="edge">
<title>18&#45;&gt;21</title>
<path fill="none" stroke="grey" stroke-width="2" d="M1044.85,-287.34C1043.81,-280.75 1042.61,-273.08 1041.44,-265.67"/>
<polygon fill="grey" stroke="grey" stroke-width="2" points="1044.45,-264.24 1039.44,-254.9 1037.53,-265.32 1044.45,-264.24"/>
</g>
<!-- 18&#45;&gt;22 -->
<g id="edge36" class="edge">
<title>18&#45;&gt;22</title>
<path fill="none" stroke="grey" stroke-width="2" d="M1067.98,-287.13C1086.95,-268.28 1109.92,-238.3 1092.62,-216 1039.43,-147.43 775.08,-109.97 659.67,-96.66"/>
<polygon fill="grey" stroke="grey" stroke-width="2" points="660.34,-92.87 650.01,-95.23 659.55,-99.83 660.34,-92.87"/>
</g>
<!-- 18&#45;&gt;25 -->
<g id="edge47" class="edge">
<title>18&#45;&gt;25</title>
<path fill="none" stroke="grey" stroke-width="2" d="M1100.41,-287.06C1127.3,-277.93 1160.25,-266.73 1188.68,-257.07"/>
<polygon fill="grey" stroke="grey" stroke-width="2" points="1190.64,-259.42 1198.98,-252.89 1188.39,-252.79 1190.64,-259.42"/>
</g>
<!-- 19&#45;&gt;18 -->
<g id="edge27" class="edge">
<title>19&#45;&gt;18</title>
<path fill="none" stroke="grey" stroke-width="2" d="M1047.62,-359.34C1047.62,-352.75 1047.62,-345.08 1047.62,-337.67"/>
<polygon fill="grey" stroke="grey" stroke-width="2" points="1051.13,-337.9 1047.62,-327.9 1044.13,-337.9 1051.13,-337.9"/>
</g>
<!-- 19&#45;&gt;22 -->
<g id="edge33" class="edge">
<title>19&#45;&gt;22</title>
<path fill="none" stroke="grey" stroke-width="2" d="M1081.84,-361.31C1096.61,-352.59 1112.37,-340.19 1120.62,-324 1127.89,-309.75 1121.84,-303.95 1120.62,-288 1118.17,-255.72 1127.02,-243.3 1109.62,-216 1078.63,-167.34 1055.61,-164.35 1001.62,-144 885.36,-100.17 737.9,-91.73 659.84,-90.61"/>
<polygon fill="grey" stroke="grey" stroke-width="2" points="660.04,-87.08 650.01,-90.48 659.97,-94.08 660.04,-87.08"/>
</g>
<!-- 20 -->
<g id="node21" class="node">
<title>20</title>
<path fill="none" stroke="#9fd856" stroke-width="2" d="M1107.38,-468C1107.38,-468 987.88,-468 987.88,-468 981.88,-468 975.88,-462 975.88,-456 975.88,-456 975.88,-444 975.88,-444 975.88,-438 981.88,-432 987.88,-432 987.88,-432 1107.38,-432 1107.38,-432 1113.38,-432 1119.38,-438 1119.38,-444 1119.38,-444 1119.38,-456 1119.38,-456 1119.38,-462 1113.38,-468 1107.38,-468"/>
<text text-anchor="middle" x="1047.62" y="-453.25" font-family="sans" font-size="10.00">fastp</text>
<text text-anchor="middle" x="1047.62" y="-440.5" font-family="sans" font-size="10.00">sample: S9_Arab_Full_S21</text>
</g>
<!-- 20&#45;&gt;19 -->
<g id="edge28" class="edge">
<title>20&#45;&gt;19</title>
<path fill="none" stroke="grey" stroke-width="2" d="M1047.62,-431.34C1047.62,-424.75 1047.62,-417.08 1047.62,-409.67"/>
<polygon fill="grey" stroke="grey" stroke-width="2" points="1051.13,-409.9 1047.62,-399.9 1044.13,-409.9 1051.13,-409.9"/>
</g>
<!-- 21&#45;&gt;17 -->
<g id="edge25" class="edge">
<title>21&#45;&gt;17</title>
<path fill="none" stroke="grey" stroke-width="2" d="M989.15,-219.13C984.6,-217.99 980.04,-216.93 975.62,-216 860.03,-191.72 721.77,-175.17 651.51,-167.64"/>
<polygon fill="grey" stroke="grey" stroke-width="2" points="652.1,-163.86 641.79,-166.29 651.37,-170.83 652.1,-163.86"/>
</g>
<!-- 22&#45;&gt;0 -->
<g id="edge2" class="edge">
<title>22&#45;&gt;0</title>
<path fill="none" stroke="grey" stroke-width="2" d="M592.5,-71.34C587.06,-64.01 580.62,-55.34 574.56,-47.18"/>
<polygon fill="grey" stroke="grey" stroke-width="2" points="576.7,-44.84 567.92,-38.9 571.08,-49.02 576.7,-44.84"/>
</g>
<!-- 23&#45;&gt;22 -->
<g id="edge40" class="edge">
<title>23&#45;&gt;22</title>
<path fill="none" stroke="grey" stroke-width="2" d="M652.18,-215C654.08,-196.58 655.07,-167.42 646.62,-144 643.41,-135.07 638.08,-126.46 632.31,-118.86"/>
<polygon fill="grey" stroke="grey" stroke-width="2" points="634.11,-116.33 625.04,-110.86 628.72,-120.8 634.11,-116.33"/>
</g>
<!-- 24&#45;&gt;22 -->
<g id="edge41" class="edge">
<title>24&#45;&gt;22</title>
<path fill="none" stroke="grey" stroke-width="2" d="M843.91,-215.14C827.7,-195.17 798.95,-163.12 767.62,-144 734.4,-123.72 692.55,-110.29 659.71,-102.02"/>
<polygon fill="grey" stroke="grey" stroke-width="2" points="659.69,-97.94 649.15,-99 658.05,-104.74 659.69,-97.94"/>
</g>
<!-- 25&#45;&gt;22 -->
<g id="edge42" class="edge">
<title>25&#45;&gt;22</title>
<path fill="none" stroke="grey" stroke-width="2" d="M1241.71,-215.34C1226.39,-194.28 1197.67,-159.91 1163.62,-144 1075.06,-102.6 781.77,-93.54 659.69,-91.56"/>
<polygon fill="grey" stroke="grey" stroke-width="2" points="660.09,-88.02 650.04,-91.37 659.99,-95.02 660.09,-88.02"/>
</g>
</g>
</svg>
