<?xml version="1.0" encoding="UTF-8" standalone="no"?>
<!DOCTYPE svg PUBLIC "-//W3C//DTD SVG 1.1//EN"
 "http://www.w3.org/Graphics/SVG/1.1/DTD/svg11.dtd">
<!-- Generated by graphviz version 8.0.5 (20230506.1012)
 -->
<!-- Title: snakemake_dag Pages: 1 -->
<svg width="1330pt" height="620pt"
 viewBox="0.00 0.00 1329.50 620.00" xmlns="http://www.w3.org/2000/svg" xmlns:xlink="http://www.w3.org/1999/xlink">
<g id="graph0" class="graph" transform="scale(1 1) rotate(0) translate(4 616)">
<title>snakemake_dag</title>
<polygon fill="white" stroke="none" points="-4,4 -4,-616 1325.5,-616 1325.5,4 -4,4"/>
<!-- 0 -->
<g id="node1" class="node">
<title>0</title>
<path fill="none" stroke="#d85656" stroke-width="2" d="M920.62,-36C920.62,-36 890.62,-36 890.62,-36 884.62,-36 878.62,-30 878.62,-24 878.62,-24 878.62,-12 878.62,-12 878.62,-6 884.62,0 890.62,0 890.62,0 920.62,0 920.62,0 926.62,0 932.62,-6 932.62,-12 932.62,-12 932.62,-24 932.62,-24 932.62,-30 926.62,-36 920.62,-36"/>
<text text-anchor="middle" x="905.62" y="-14.88" font-family="sans" font-size="10.00">all</text>
</g>
<!-- 1 -->
<g id="node2" class="node">
<title>1</title>
<path fill="none" stroke="#56d8a2" stroke-width="2" d="M452,-108C452,-108 387.25,-108 387.25,-108 381.25,-108 375.25,-102 375.25,-96 375.25,-96 375.25,-84 375.25,-84 375.25,-78 381.25,-72 387.25,-72 387.25,-72 452,-72 452,-72 458,-72 464,-78 464,-84 464,-84 464,-96 464,-96 464,-102 458,-108 452,-108"/>
<text text-anchor="middle" x="419.62" y="-86.88" font-family="sans" font-size="10.00">plot_mosdepth</text>
</g>
<!-- 1&#45;&gt;0 -->
<g id="edge1" class="edge">
<title>1&#45;&gt;0</title>
<path fill="none" stroke="grey" stroke-width="2" d="M464.87,-75.98C470.81,-74.51 476.84,-73.14 482.62,-72 621.7,-44.66 789.41,-28.57 865.09,-22.19"/>
<polygon fill="grey" stroke="grey" stroke-width="2" points="865.02,-25.46 874.7,-21.15 864.44,-18.48 865.02,-25.46"/>
</g>
<!-- 2 -->
<g id="node3" class="node">
<title>2</title>
<path fill="none" stroke="#78d856" stroke-width="2" d="M237,-180C237,-180 196.25,-180 196.25,-180 190.25,-180 184.25,-174 184.25,-168 184.25,-168 184.25,-156 184.25,-156 184.25,-150 190.25,-144 196.25,-144 196.25,-144 237,-144 237,-144 243,-144 249,-150 249,-156 249,-156 249,-168 249,-168 249,-174 243,-180 237,-180"/>
<text text-anchor="middle" x="216.62" y="-158.88" font-family="sans" font-size="10.00">mosdepth</text>
</g>
<!-- 2&#45;&gt;1 -->
<g id="edge6" class="edge">
<title>2&#45;&gt;1</title>
<path fill="none" stroke="grey" stroke-width="2" d="M249.69,-149.6C280.18,-139.09 326.07,-123.26 362.49,-110.7"/>
<polygon fill="grey" stroke="grey" stroke-width="2" points="364.12,-113.15 372.44,-106.58 361.84,-106.53 364.12,-113.15"/>
</g>
<!-- 22 -->
<g id="node23" class="node">
<title>22</title>
<path fill="none" stroke="#56d8c9" stroke-width="2" d="M561.25,-108C561.25,-108 504,-108 504,-108 498,-108 492,-102 492,-96 492,-96 492,-84 492,-84 492,-78 498,-72 504,-72 504,-72 561.25,-72 561.25,-72 567.25,-72 573.25,-78 573.25,-84 573.25,-84 573.25,-96 573.25,-96 573.25,-102 567.25,-108 561.25,-108"/>
<text text-anchor="middle" x="532.62" y="-86.88" font-family="sans" font-size="10.00">sample_stats</text>
</g>
<!-- 2&#45;&gt;22 -->
<g id="edge40" class="edge">
<title>2&#45;&gt;22</title>
<path fill="none" stroke="grey" stroke-width="2" d="M249.72,-154.02C264.39,-150.94 281.87,-147.27 297.62,-144 375.37,-127.84 395.48,-126.84 472.62,-108 474.59,-107.52 476.59,-107.02 478.61,-106.5"/>
<polygon fill="grey" stroke="grey" stroke-width="2" points="480.32,-109.14 489.09,-103.19 478.53,-102.37 480.32,-109.14"/>
</g>
<!-- 3 -->
<g id="node4" class="node">
<title>3</title>
<path fill="none" stroke="#56d87b" stroke-width="2" d="M309.12,-324C309.12,-324 206.12,-324 206.12,-324 200.12,-324 194.12,-318 194.12,-312 194.12,-312 194.12,-300 194.12,-300 194.12,-294 200.12,-288 206.12,-288 206.12,-288 309.12,-288 309.12,-288 315.12,-288 321.12,-294 321.12,-300 321.12,-300 321.12,-312 321.12,-312 321.12,-318 315.12,-324 309.12,-324"/>
<text text-anchor="middle" x="257.62" y="-302.88" font-family="sans" font-size="10.00">picard_markduplicates</text>
</g>
<!-- 3&#45;&gt;2 -->
<g id="edge9" class="edge">
<title>3&#45;&gt;2</title>
<path fill="none" stroke="grey" stroke-width="2" d="M193.39,-290.7C173,-282.81 152.65,-270.65 140.62,-252 131.95,-238.55 133.22,-230.19 140.62,-216 147.65,-202.54 159.82,-191.81 172.39,-183.61"/>
<polygon fill="grey" stroke="grey" stroke-width="2" points="174.61,-186.18 181.42,-178.06 171.03,-180.16 174.61,-186.18"/>
</g>
<!-- 9 -->
<g id="node10" class="node">
<title>9</title>
<path fill="none" stroke="#56a2d8" stroke-width="2" d="M81.25,-252C81.25,-252 12,-252 12,-252 6,-252 0,-246 0,-240 0,-240 0,-228 0,-228 0,-222 6,-216 12,-216 12,-216 81.25,-216 81.25,-216 87.25,-216 93.25,-222 93.25,-228 93.25,-228 93.25,-240 93.25,-240 93.25,-246 87.25,-252 81.25,-252"/>
<text text-anchor="middle" x="46.62" y="-230.88" font-family="sans" font-size="10.00">samtools_index</text>
</g>
<!-- 3&#45;&gt;9 -->
<g id="edge17" class="edge">
<title>3&#45;&gt;9</title>
<path fill="none" stroke="grey" stroke-width="2" d="M203.56,-287.06C173.83,-277.2 136.89,-264.95 106.32,-254.8"/>
<polygon fill="grey" stroke="grey" stroke-width="2" points="106.68,-250.57 96.08,-250.74 104.47,-257.22 106.68,-250.57"/>
</g>
<!-- 3&#45;&gt;22 -->
<g id="edge37" class="edge">
<title>3&#45;&gt;22</title>
<path fill="none" stroke="grey" stroke-width="2" d="M270.12,-287.34C276.95,-277.26 285.28,-264.23 291.62,-252 315.5,-205.99 296.67,-178.19 335.62,-144 382.94,-102.47 411.89,-124.58 472.62,-108 474.58,-107.47 476.57,-106.92 478.57,-106.37"/>
<polygon fill="grey" stroke="grey" stroke-width="2" points="480.32,-108.96 489.02,-102.9 478.44,-102.21 480.32,-108.96"/>
</g>
<!-- 23 -->
<g id="node24" class="node">
<title>23</title>
<path fill="none" stroke="#59d856" stroke-width="2" d="M969.5,-252C969.5,-252 841.75,-252 841.75,-252 835.75,-252 829.75,-246 829.75,-240 829.75,-240 829.75,-228 829.75,-228 829.75,-222 835.75,-216 841.75,-216 841.75,-216 969.5,-216 969.5,-216 975.5,-216 981.5,-222 981.5,-228 981.5,-228 981.5,-240 981.5,-240 981.5,-246 975.5,-252 969.5,-252"/>
<text text-anchor="middle" x="905.62" y="-230.88" font-family="sans" font-size="10.00">picard_collectgcbiasmetrics</text>
</g>
<!-- 3&#45;&gt;23 -->
<g id="edge43" class="edge">
<title>3&#45;&gt;23</title>
<path fill="none" stroke="grey" stroke-width="2" d="M321.83,-298.06C438.01,-285.51 683.37,-259.01 816,-244.68"/>
<polygon fill="grey" stroke="grey" stroke-width="2" points="816.3,-247.85 825.87,-243.29 815.55,-240.89 816.3,-247.85"/>
</g>
<!-- 4 -->
<g id="node5" class="node">
<title>4</title>
<path fill="none" stroke="#c6d856" stroke-width="2" d="M361.12,-396C361.12,-396 318.12,-396 318.12,-396 312.12,-396 306.12,-390 306.12,-384 306.12,-384 306.12,-372 306.12,-372 306.12,-366 312.12,-360 318.12,-360 318.12,-360 361.12,-360 361.12,-360 367.12,-360 373.12,-366 373.12,-372 373.12,-372 373.12,-384 373.12,-384 373.12,-390 367.12,-396 361.12,-396"/>
<text text-anchor="middle" x="339.62" y="-374.88" font-family="sans" font-size="10.00">bwa_mem</text>
</g>
<!-- 4&#45;&gt;3 -->
<g id="edge12" class="edge">
<title>4&#45;&gt;3</title>
<path fill="none" stroke="grey" stroke-width="2" d="M318.93,-359.34C309.68,-351.44 298.58,-341.96 288.39,-333.26"/>
<polygon fill="grey" stroke="grey" stroke-width="2" points="290.47,-329.73 280.6,-325.9 285.93,-335.06 290.47,-329.73"/>
</g>
<!-- 4&#45;&gt;22 -->
<g id="edge34" class="edge">
<title>4&#45;&gt;22</title>
<path fill="none" stroke="grey" stroke-width="2" d="M339.45,-359.29C339.34,-310.71 341.54,-176.75 368.62,-144 372.35,-139.5 432.57,-120.76 478.97,-106.84"/>
<polygon fill="grey" stroke="grey" stroke-width="2" points="480.75,-109.36 489.32,-103.14 478.74,-102.65 480.75,-109.36"/>
</g>
<!-- 5 -->
<g id="node6" class="node">
<title>5</title>
<path fill="none" stroke="#9fd856" stroke-width="2" d="M394.38,-468C394.38,-468 274.88,-468 274.88,-468 268.88,-468 262.88,-462 262.88,-456 262.88,-456 262.88,-444 262.88,-444 262.88,-438 268.88,-432 274.88,-432 274.88,-432 394.38,-432 394.38,-432 400.38,-432 406.38,-438 406.38,-444 406.38,-444 406.38,-456 406.38,-456 406.38,-462 400.38,-468 394.38,-468"/>
<text text-anchor="middle" x="334.62" y="-453.25" font-family="sans" font-size="10.00">fastp</text>
<text text-anchor="middle" x="334.62" y="-440.5" font-family="sans" font-size="10.00">sample: S3_Arab_Full_S15</text>
</g>
<!-- 5&#45;&gt;4 -->
<g id="edge13" class="edge">
<title>5&#45;&gt;4</title>
<path fill="none" stroke="grey" stroke-width="2" d="M335.89,-431.34C336.36,-424.75 336.91,-417.08 337.43,-409.67"/>
<polygon fill="grey" stroke="grey" stroke-width="2" points="341.12,-410.13 338.35,-399.9 334.14,-409.63 341.12,-410.13"/>
</g>
<!-- 6 -->
<g id="node7" class="node">
<title>6</title>
<path fill="none" stroke="#d8c356" stroke-width="2" d="M480.88,-468C480.88,-468 436.38,-468 436.38,-468 430.38,-468 424.38,-462 424.38,-456 424.38,-456 424.38,-444 424.38,-444 424.38,-438 430.38,-432 436.38,-432 436.38,-432 480.88,-432 480.88,-432 486.88,-432 492.88,-438 492.88,-444 492.88,-444 492.88,-456 492.88,-456 492.88,-462 486.88,-468 480.88,-468"/>
<text text-anchor="middle" x="458.62" y="-446.88" font-family="sans" font-size="10.00">bwa_index</text>
</g>
<!-- 6&#45;&gt;4 -->
<g id="edge14" class="edge">
<title>6&#45;&gt;4</title>
<path fill="none" stroke="grey" stroke-width="2" d="M428.29,-431.15C413.88,-422.68 396.44,-412.42 380.86,-403.25"/>
<polygon fill="grey" stroke="grey" stroke-width="2" points="382.3,-399.87 371.91,-397.81 378.75,-405.9 382.3,-399.87"/>
</g>
<!-- 14 -->
<g id="node15" class="node">
<title>14</title>
<path fill="none" stroke="#c6d856" stroke-width="2" d="M581.12,-396C581.12,-396 538.12,-396 538.12,-396 532.12,-396 526.12,-390 526.12,-384 526.12,-384 526.12,-372 526.12,-372 526.12,-366 532.12,-360 538.12,-360 538.12,-360 581.12,-360 581.12,-360 587.12,-360 593.12,-366 593.12,-372 593.12,-372 593.12,-384 593.12,-384 593.12,-390 587.12,-396 581.12,-396"/>
<text text-anchor="middle" x="559.62" y="-374.88" font-family="sans" font-size="10.00">bwa_mem</text>
</g>
<!-- 6&#45;&gt;14 -->
<g id="edge25" class="edge">
<title>6&#45;&gt;14</title>
<path fill="none" stroke="grey" stroke-width="2" d="M484.37,-431.15C496.24,-422.93 510.54,-413.02 523.47,-404.06"/>
<polygon fill="grey" stroke="grey" stroke-width="2" points="525.7,-406.39 531.92,-397.81 521.71,-400.63 525.7,-406.39"/>
</g>
<!-- 19 -->
<g id="node20" class="node">
<title>19</title>
<path fill="none" stroke="#c6d856" stroke-width="2" d="M754.12,-396C754.12,-396 711.12,-396 711.12,-396 705.12,-396 699.12,-390 699.12,-384 699.12,-384 699.12,-372 699.12,-372 699.12,-366 705.12,-360 711.12,-360 711.12,-360 754.12,-360 754.12,-360 760.12,-360 766.12,-366 766.12,-372 766.12,-372 766.12,-384 766.12,-384 766.12,-390 760.12,-396 754.12,-396"/>
<text text-anchor="middle" x="732.62" y="-374.88" font-family="sans" font-size="10.00">bwa_mem</text>
</g>
<!-- 6&#45;&gt;19 -->
<g id="edge32" class="edge">
<title>6&#45;&gt;19</title>
<path fill="none" stroke="grey" stroke-width="2" d="M493.67,-434.65C496.35,-433.7 499.02,-432.81 501.62,-432 564.3,-412.54 638.55,-396.76 685.62,-387.62"/>
<polygon fill="grey" stroke="grey" stroke-width="2" points="686.98,-390.54 696.14,-385.22 685.66,-383.67 686.98,-390.54"/>
</g>
<!-- 7 -->
<g id="node8" class="node">
<title>7</title>
<path fill="none" stroke="#d8a456" stroke-width="2" d="M493.62,-540C493.62,-540 423.62,-540 423.62,-540 417.62,-540 411.62,-534 411.62,-528 411.62,-528 411.62,-516 411.62,-516 411.62,-510 417.62,-504 423.62,-504 423.62,-504 493.62,-504 493.62,-504 499.62,-504 505.62,-510 505.62,-516 505.62,-516 505.62,-528 505.62,-528 505.62,-534 499.62,-540 493.62,-540"/>
<text text-anchor="middle" x="458.62" y="-518.88" font-family="sans" font-size="10.00">bgzip_reference</text>
</g>
<!-- 7&#45;&gt;6 -->
<g id="edge15" class="edge">
<title>7&#45;&gt;6</title>
<path fill="none" stroke="grey" stroke-width="2" d="M458.62,-503.34C458.62,-496.75 458.62,-489.08 458.62,-481.67"/>
<polygon fill="grey" stroke="grey" stroke-width="2" points="462.13,-481.9 458.62,-471.9 455.13,-481.9 462.13,-481.9"/>
</g>
<!-- 11 -->
<g id="node12" class="node">
<title>11</title>
<path fill="none" stroke="#56c9d8" stroke-width="2" d="M220.12,-396C220.12,-396 153.12,-396 153.12,-396 147.12,-396 141.12,-390 141.12,-384 141.12,-384 141.12,-372 141.12,-372 141.12,-366 147.12,-360 153.12,-360 153.12,-360 220.12,-360 220.12,-360 226.12,-360 232.12,-366 232.12,-372 232.12,-372 232.12,-384 232.12,-384 232.12,-390 226.12,-396 220.12,-396"/>
<text text-anchor="middle" x="186.62" y="-374.88" font-family="sans" font-size="10.00">samtools_faidx</text>
</g>
<!-- 7&#45;&gt;11 -->
<g id="edge19" class="edge">
<title>7&#45;&gt;11</title>
<path fill="none" stroke="grey" stroke-width="2" d="M411.05,-517.65C367,-512.58 301.3,-499.87 253.62,-468 231.15,-452.98 213.24,-427.82 201.62,-408.08"/>
<polygon fill="grey" stroke="grey" stroke-width="2" points="204.3,-405.93 196.36,-398.92 198.19,-409.35 204.3,-405.93"/>
</g>
<!-- 8 -->
<g id="node9" class="node">
<title>8</title>
<path fill="none" stroke="#567bd8" stroke-width="2" d="M1078.88,-612C1078.88,-612 836.38,-612 836.38,-612 830.38,-612 824.38,-606 824.38,-600 824.38,-600 824.38,-588 824.38,-588 824.38,-582 830.38,-576 836.38,-576 836.38,-576 1078.88,-576 1078.88,-576 1084.88,-576 1090.88,-582 1090.88,-588 1090.88,-588 1090.88,-600 1090.88,-600 1090.88,-606 1084.88,-612 1078.88,-612"/>
<text text-anchor="middle" x="957.62" y="-597.25" font-family="sans" font-size="10.00">wget_reference</text>
<text text-anchor="middle" x="957.62" y="-584.5" font-family="sans" font-size="10.00">name: GCF_000001735.4_TAIR10.1_genomic.fna.gz</text>
</g>
<!-- 8&#45;&gt;7 -->
<g id="edge16" class="edge">
<title>8&#45;&gt;7</title>
<path fill="none" stroke="grey" stroke-width="2" d="M829.44,-575.02C729.67,-561.02 595.69,-542.23 519.1,-531.48"/>
<polygon fill="grey" stroke="grey" stroke-width="2" points="518.8,-527.63 508.41,-529.7 517.82,-534.56 518.8,-527.63"/>
</g>
<!-- 8&#45;&gt;23 -->
<g id="edge44" class="edge">
<title>8&#45;&gt;23</title>
<path fill="none" stroke="grey" stroke-width="2" d="M953.69,-575.17C948.12,-548.36 938.62,-496.02 938.62,-451 938.62,-451 938.62,-451 938.62,-377 938.62,-337.45 926.33,-293.28 916.75,-264.86"/>
<polygon fill="grey" stroke="grey" stroke-width="2" points="920.07,-262.91 913.46,-254.63 913.47,-265.22 920.07,-262.91"/>
</g>
<!-- 24 -->
<g id="node25" class="node">
<title>24</title>
<path fill="none" stroke="#59d856" stroke-width="2" d="M1139.5,-252C1139.5,-252 1011.75,-252 1011.75,-252 1005.75,-252 999.75,-246 999.75,-240 999.75,-240 999.75,-228 999.75,-228 999.75,-222 1005.75,-216 1011.75,-216 1011.75,-216 1139.5,-216 1139.5,-216 1145.5,-216 1151.5,-222 1151.5,-228 1151.5,-228 1151.5,-240 1151.5,-240 1151.5,-246 1145.5,-252 1139.5,-252"/>
<text text-anchor="middle" x="1075.62" y="-230.88" font-family="sans" font-size="10.00">picard_collectgcbiasmetrics</text>
</g>
<!-- 8&#45;&gt;24 -->
<g id="edge46" class="edge">
<title>8&#45;&gt;24</title>
<path fill="none" stroke="grey" stroke-width="2" d="M976.91,-575.31C1001.99,-550.27 1042.62,-501.86 1042.62,-451 1042.62,-451 1042.62,-451 1042.62,-377 1042.62,-337.45 1054.92,-293.28 1064.5,-264.86"/>
<polygon fill="grey" stroke="grey" stroke-width="2" points="1067.78,-265.22 1067.79,-254.63 1061.18,-262.91 1067.78,-265.22"/>
</g>
<!-- 25 -->
<g id="node26" class="node">
<title>25</title>
<path fill="none" stroke="#59d856" stroke-width="2" d="M1309.5,-252C1309.5,-252 1181.75,-252 1181.75,-252 1175.75,-252 1169.75,-246 1169.75,-240 1169.75,-240 1169.75,-228 1169.75,-228 1169.75,-222 1175.75,-216 1181.75,-216 1181.75,-216 1309.5,-216 1309.5,-216 1315.5,-216 1321.5,-222 1321.5,-228 1321.5,-228 1321.5,-240 1321.5,-240 1321.5,-246 1315.5,-252 1309.5,-252"/>
<text text-anchor="middle" x="1245.62" y="-230.88" font-family="sans" font-size="10.00">picard_collectgcbiasmetrics</text>
</g>
<!-- 8&#45;&gt;25 -->
<g id="edge48" class="edge">
<title>8&#45;&gt;25</title>
<path fill="none" stroke="grey" stroke-width="2" d="M1069.47,-575.07C1137.99,-556.99 1212.62,-521.18 1212.62,-451 1212.62,-451 1212.62,-451 1212.62,-377 1212.62,-337.45 1224.92,-293.28 1234.5,-264.86"/>
<polygon fill="grey" stroke="grey" stroke-width="2" points="1237.78,-265.22 1237.79,-254.63 1231.18,-262.91 1237.78,-265.22"/>
</g>
<!-- 9&#45;&gt;2 -->
<g id="edge10" class="edge">
<title>9&#45;&gt;2</title>
<path fill="none" stroke="grey" stroke-width="2" d="M89.96,-215.15C114.9,-204.89 146.2,-192 171.44,-181.61"/>
<polygon fill="grey" stroke="grey" stroke-width="2" points="173.38,-184.77 181.29,-177.73 170.71,-178.3 173.38,-184.77"/>
</g>
<!-- 10 -->
<g id="node11" class="node">
<title>10</title>
<path fill="none" stroke="#d87d56" stroke-width="2" d="M271.12,-252C271.12,-252 162.12,-252 162.12,-252 156.12,-252 150.12,-246 150.12,-240 150.12,-240 150.12,-228 150.12,-228 150.12,-222 156.12,-216 162.12,-216 162.12,-216 271.12,-216 271.12,-216 277.12,-216 283.12,-222 283.12,-228 283.12,-228 283.12,-240 283.12,-240 283.12,-246 277.12,-252 271.12,-252"/>
<text text-anchor="middle" x="216.62" y="-230.88" font-family="sans" font-size="10.00">bedtools_makewindows</text>
</g>
<!-- 10&#45;&gt;2 -->
<g id="edge11" class="edge">
<title>10&#45;&gt;2</title>
<path fill="none" stroke="grey" stroke-width="2" d="M216.62,-215.34C216.62,-208.75 216.62,-201.08 216.62,-193.67"/>
<polygon fill="grey" stroke="grey" stroke-width="2" points="220.13,-193.9 216.62,-183.9 213.13,-193.9 220.13,-193.9"/>
</g>
<!-- 12 -->
<g id="node13" class="node">
<title>12</title>
<path fill="none" stroke="#78d856" stroke-width="2" d="M430,-180C430,-180 389.25,-180 389.25,-180 383.25,-180 377.25,-174 377.25,-168 377.25,-168 377.25,-156 377.25,-156 377.25,-150 383.25,-144 389.25,-144 389.25,-144 430,-144 430,-144 436,-144 442,-150 442,-156 442,-156 442,-168 442,-168 442,-174 436,-180 430,-180"/>
<text text-anchor="middle" x="409.62" y="-158.88" font-family="sans" font-size="10.00">mosdepth</text>
</g>
<!-- 10&#45;&gt;12 -->
<g id="edge22" class="edge">
<title>10&#45;&gt;12</title>
<path fill="none" stroke="grey" stroke-width="2" d="M266.08,-215.06C296.37,-204.08 334.86,-190.12 364.35,-179.42"/>
<polygon fill="grey" stroke="grey" stroke-width="2" points="366.18,-182.75 374.39,-176.05 363.8,-176.17 366.18,-182.75"/>
</g>
<!-- 17 -->
<g id="node18" class="node">
<title>17</title>
<path fill="none" stroke="#78d856" stroke-width="2" d="M513,-180C513,-180 472.25,-180 472.25,-180 466.25,-180 460.25,-174 460.25,-168 460.25,-168 460.25,-156 460.25,-156 460.25,-150 466.25,-144 472.25,-144 472.25,-144 513,-144 513,-144 519,-144 525,-150 525,-156 525,-156 525,-168 525,-168 525,-174 519,-180 513,-180"/>
<text text-anchor="middle" x="492.62" y="-158.88" font-family="sans" font-size="10.00">mosdepth</text>
</g>
<!-- 10&#45;&gt;17 -->
<g id="edge29" class="edge">
<title>10&#45;&gt;17</title>
<path fill="none" stroke="grey" stroke-width="2" d="M283.96,-220.76C328.1,-212.05 387.17,-199.12 446.97,-180.89"/>
<polygon fill="grey" stroke="grey" stroke-width="2" points="448.82,-183.35 457.33,-177.04 446.74,-176.67 448.82,-183.35"/>
</g>
<!-- 11&#45;&gt;10 -->
<g id="edge18" class="edge">
<title>11&#45;&gt;10</title>
<path fill="none" stroke="grey" stroke-width="2" d="M183.25,-359.23C180.46,-340.99 177.95,-311.97 184.62,-288 186.96,-279.61 191.02,-271.22 195.49,-263.68"/>
<polygon fill="grey" stroke="grey" stroke-width="2" points="198.91,-265.28 201.39,-254.98 193.03,-261.48 198.91,-265.28"/>
</g>
<!-- 12&#45;&gt;1 -->
<g id="edge7" class="edge">
<title>12&#45;&gt;1</title>
<path fill="none" stroke="grey" stroke-width="2" d="M412.15,-143.34C413.09,-136.75 414.19,-129.08 415.24,-121.67"/>
<polygon fill="grey" stroke="grey" stroke-width="2" points="419.12,-121.3 417.07,-110.9 412.19,-120.31 419.12,-121.3"/>
</g>
<!-- 12&#45;&gt;22 -->
<g id="edge41" class="edge">
<title>12&#45;&gt;22</title>
<path fill="none" stroke="grey" stroke-width="2" d="M440.98,-143.15C456.02,-134.6 474.25,-124.22 490.47,-114.99"/>
<polygon fill="grey" stroke="grey" stroke-width="2" points="492.37,-117.8 499.33,-109.81 488.9,-111.72 492.37,-117.8"/>
</g>
<!-- 13 -->
<g id="node14" class="node">
<title>13</title>
<path fill="none" stroke="#56d87b" stroke-width="2" d="M583.12,-324C583.12,-324 480.12,-324 480.12,-324 474.12,-324 468.12,-318 468.12,-312 468.12,-312 468.12,-300 468.12,-300 468.12,-294 474.12,-288 480.12,-288 480.12,-288 583.12,-288 583.12,-288 589.12,-288 595.12,-294 595.12,-300 595.12,-300 595.12,-312 595.12,-312 595.12,-318 589.12,-324 583.12,-324"/>
<text text-anchor="middle" x="531.62" y="-302.88" font-family="sans" font-size="10.00">picard_markduplicates</text>
</g>
<!-- 13&#45;&gt;12 -->
<g id="edge20" class="edge">
<title>13&#45;&gt;12</title>
<path fill="none" stroke="grey" stroke-width="2" d="M524.1,-287.25C515.48,-268.24 499.99,-237.86 480.62,-216 471.67,-205.9 460.52,-196.49 449.72,-188.5"/>
<polygon fill="grey" stroke="grey" stroke-width="2" points="451.32,-184.92 441.14,-181.99 447.27,-190.63 451.32,-184.92"/>
</g>
<!-- 16 -->
<g id="node17" class="node">
<title>16</title>
<path fill="none" stroke="#56a2d8" stroke-width="2" d="M459.25,-252C459.25,-252 390,-252 390,-252 384,-252 378,-246 378,-240 378,-240 378,-228 378,-228 378,-222 384,-216 390,-216 390,-216 459.25,-216 459.25,-216 465.25,-216 471.25,-222 471.25,-228 471.25,-228 471.25,-240 471.25,-240 471.25,-246 465.25,-252 459.25,-252"/>
<text text-anchor="middle" x="424.62" y="-230.88" font-family="sans" font-size="10.00">samtools_index</text>
</g>
<!-- 13&#45;&gt;16 -->
<g id="edge26" class="edge">
<title>13&#45;&gt;16</title>
<path fill="none" stroke="grey" stroke-width="2" d="M504.35,-287.15C491.64,-278.84 476.32,-268.82 462.52,-259.79"/>
<polygon fill="grey" stroke="grey" stroke-width="2" points="464.14,-256.36 453.85,-253.81 460.3,-262.22 464.14,-256.36"/>
</g>
<!-- 13&#45;&gt;22 -->
<g id="edge38" class="edge">
<title>13&#45;&gt;22</title>
<path fill="none" stroke="grey" stroke-width="2" d="M532.1,-287.13C532.84,-257.42 534.12,-195.99 533.62,-144 533.56,-136.73 533.43,-128.9 533.3,-121.55"/>
<polygon fill="grey" stroke="grey" stroke-width="2" points="536.74,-121.59 533.04,-111.67 529.74,-121.73 536.74,-121.59"/>
</g>
<!-- 13&#45;&gt;24 -->
<g id="edge45" class="edge">
<title>13&#45;&gt;24</title>
<path fill="none" stroke="grey" stroke-width="2" d="M596.11,-294.68C611.65,-292.34 628.21,-289.97 643.62,-288 793.37,-268.88 835.14,-274.89 986.25,-252.58"/>
<polygon fill="grey" stroke="grey" stroke-width="2" points="987.4,-255.65 996.77,-250.71 986.36,-248.73 987.4,-255.65"/>
</g>
<!-- 14&#45;&gt;13 -->
<g id="edge23" class="edge">
<title>14&#45;&gt;13</title>
<path fill="none" stroke="grey" stroke-width="2" d="M552.56,-359.34C549.83,-352.51 546.63,-344.5 543.56,-336.83"/>
<polygon fill="grey" stroke="grey" stroke-width="2" points="546.75,-334.89 539.79,-326.9 540.25,-337.49 546.75,-334.89"/>
</g>
<!-- 14&#45;&gt;22 -->
<g id="edge35" class="edge">
<title>14&#45;&gt;22</title>
<path fill="none" stroke="grey" stroke-width="2" d="M576.2,-359.41C605.5,-328.12 663.8,-264.87 668.62,-252 674.24,-237.02 675.06,-230.65 668.62,-216 649.57,-172.6 607.19,-137.65 574.76,-115.86"/>
<polygon fill="grey" stroke="grey" stroke-width="2" points="576.49,-112.5 566.2,-109.98 572.67,-118.37 576.49,-112.5"/>
</g>
<!-- 15 -->
<g id="node16" class="node">
<title>15</title>
<path fill="none" stroke="#9fd856" stroke-width="2" d="M642.38,-468C642.38,-468 522.88,-468 522.88,-468 516.88,-468 510.88,-462 510.88,-456 510.88,-456 510.88,-444 510.88,-444 510.88,-438 516.88,-432 522.88,-432 522.88,-432 642.38,-432 642.38,-432 648.38,-432 654.38,-438 654.38,-444 654.38,-444 654.38,-456 654.38,-456 654.38,-462 648.38,-468 642.38,-468"/>
<text text-anchor="middle" x="582.62" y="-453.25" font-family="sans" font-size="10.00">fastp</text>
<text text-anchor="middle" x="582.62" y="-440.5" font-family="sans" font-size="10.00">sample: S6_Arab_Full_S18</text>
</g>
<!-- 15&#45;&gt;14 -->
<g id="edge24" class="edge">
<title>15&#45;&gt;14</title>
<path fill="none" stroke="grey" stroke-width="2" d="M576.82,-431.34C574.6,-424.59 572.01,-416.69 569.52,-409.11"/>
<polygon fill="grey" stroke="grey" stroke-width="2" points="571.95,-407.31 565.51,-398.9 565.3,-409.49 571.95,-407.31"/>
</g>
<!-- 16&#45;&gt;12 -->
<g id="edge21" class="edge">
<title>16&#45;&gt;12</title>
<path fill="none" stroke="grey" stroke-width="2" d="M420.84,-215.34C419.41,-208.67 417.74,-200.89 416.14,-193.39"/>
<polygon fill="grey" stroke="grey" stroke-width="2" points="418.98,-191.95 413.46,-182.9 412.13,-193.41 418.98,-191.95"/>
</g>
<!-- 17&#45;&gt;1 -->
<g id="edge8" class="edge">
<title>17&#45;&gt;1</title>
<path fill="none" stroke="grey" stroke-width="2" d="M474.2,-143.34C466.14,-135.6 456.5,-126.36 447.58,-117.81"/>
<polygon fill="grey" stroke="grey" stroke-width="2" points="449.93,-115.3 440.29,-110.9 445.09,-120.35 449.93,-115.3"/>
</g>
<!-- 17&#45;&gt;22 -->
<g id="edge42" class="edge">
<title>17&#45;&gt;22</title>
<path fill="none" stroke="grey" stroke-width="2" d="M502.72,-143.34C506.76,-136.26 511.53,-127.92 516.05,-120"/>
<polygon fill="grey" stroke="grey" stroke-width="2" points="519.47,-121.32 521.4,-110.9 513.4,-117.85 519.47,-121.32"/>
</g>
<!-- 18 -->
<g id="node19" class="node">
<title>18</title>
<path fill="none" stroke="#56d87b" stroke-width="2" d="M767.12,-324C767.12,-324 664.12,-324 664.12,-324 658.12,-324 652.12,-318 652.12,-312 652.12,-312 652.12,-300 652.12,-300 652.12,-294 658.12,-288 664.12,-288 664.12,-288 767.12,-288 767.12,-288 773.12,-288 779.12,-294 779.12,-300 779.12,-300 779.12,-312 779.12,-312 779.12,-318 773.12,-324 767.12,-324"/>
<text text-anchor="middle" x="715.62" y="-302.88" font-family="sans" font-size="10.00">picard_markduplicates</text>
</g>
<!-- 18&#45;&gt;17 -->
<g id="edge27" class="edge">
<title>18&#45;&gt;17</title>
<path fill="none" stroke="grey" stroke-width="2" d="M710.82,-287.29C704.45,-267.16 691.29,-234.66 668.62,-216 631.49,-185.43 577.07,-172.49 538.59,-167.01"/>
<polygon fill="grey" stroke="grey" stroke-width="2" points="539.07,-163.16 528.7,-165.37 538.18,-170.1 539.07,-163.16"/>
</g>
<!-- 21 -->
<g id="node22" class="node">
<title>21</title>
<path fill="none" stroke="#56a2d8" stroke-width="2" d="M647.25,-252C647.25,-252 578,-252 578,-252 572,-252 566,-246 566,-240 566,-240 566,-228 566,-228 566,-222 572,-216 578,-216 578,-216 647.25,-216 647.25,-216 653.25,-216 659.25,-222 659.25,-228 659.25,-228 659.25,-240 659.25,-240 659.25,-246 653.25,-252 647.25,-252"/>
<text text-anchor="middle" x="612.62" y="-230.88" font-family="sans" font-size="10.00">samtools_index</text>
</g>
<!-- 18&#45;&gt;21 -->
<g id="edge33" class="edge">
<title>18&#45;&gt;21</title>
<path fill="none" stroke="grey" stroke-width="2" d="M689.37,-287.15C677.26,-278.93 662.68,-269.02 649.5,-260.06"/>
<polygon fill="grey" stroke="grey" stroke-width="2" points="651.07,-256.54 640.83,-253.81 647.14,-262.33 651.07,-256.54"/>
</g>
<!-- 18&#45;&gt;22 -->
<g id="edge39" class="edge">
<title>18&#45;&gt;22</title>
<path fill="none" stroke="grey" stroke-width="2" d="M726.02,-287.13C743.23,-254.92 772.64,-186.53 739.62,-144 720.99,-119.99 641.4,-105 586.52,-97.32"/>
<polygon fill="grey" stroke="grey" stroke-width="2" points="587.22,-93.48 576.85,-95.62 586.29,-100.42 587.22,-93.48"/>
</g>
<!-- 18&#45;&gt;25 -->
<g id="edge47" class="edge">
<title>18&#45;&gt;25</title>
<path fill="none" stroke="grey" stroke-width="2" d="M779.96,-298.95C864.14,-290.67 1016.52,-274.47 1156.16,-252.65"/>
<polygon fill="grey" stroke="grey" stroke-width="2" points="1157.43,-255.67 1166.76,-250.65 1156.34,-248.76 1157.43,-255.67"/>
</g>
<!-- 19&#45;&gt;18 -->
<g id="edge30" class="edge">
<title>19&#45;&gt;18</title>
<path fill="none" stroke="grey" stroke-width="2" d="M728.34,-359.34C726.72,-352.67 724.83,-344.89 723.01,-337.39"/>
<polygon fill="grey" stroke="grey" stroke-width="2" points="725.73,-335.79 719.97,-326.9 718.93,-337.45 725.73,-335.79"/>
</g>
<!-- 19&#45;&gt;22 -->
<g id="edge36" class="edge">
<title>19&#45;&gt;22</title>
<path fill="none" stroke="grey" stroke-width="2" d="M759.63,-359.11C770.83,-350.06 782.59,-338.02 788.62,-324 810.2,-273.87 808.16,-193.3 760.62,-144 736.91,-119.4 645.97,-104.25 586.36,-96.75"/>
<polygon fill="grey" stroke="grey" stroke-width="2" points="587.13,-92.95 576.78,-95.22 586.28,-99.9 587.13,-92.95"/>
</g>
<!-- 20 -->
<g id="node21" class="node">
<title>20</title>
<path fill="none" stroke="#9fd856" stroke-width="2" d="M804.38,-468C804.38,-468 684.88,-468 684.88,-468 678.88,-468 672.88,-462 672.88,-456 672.88,-456 672.88,-444 672.88,-444 672.88,-438 678.88,-432 684.88,-432 684.88,-432 804.38,-432 804.38,-432 810.38,-432 816.38,-438 816.38,-444 816.38,-444 816.38,-456 816.38,-456 816.38,-462 810.38,-468 804.38,-468"/>
<text text-anchor="middle" x="744.62" y="-453.25" font-family="sans" font-size="10.00">fastp</text>
<text text-anchor="middle" x="744.62" y="-440.5" font-family="sans" font-size="10.00">sample: S9_Arab_Full_S21</text>
</g>
<!-- 20&#45;&gt;19 -->
<g id="edge31" class="edge">
<title>20&#45;&gt;19</title>
<path fill="none" stroke="grey" stroke-width="2" d="M741.6,-431.34C740.47,-424.75 739.15,-417.08 737.88,-409.67"/>
<polygon fill="grey" stroke="grey" stroke-width="2" points="740.83,-408.17 735.69,-398.9 733.93,-409.35 740.83,-408.17"/>
</g>
<!-- 21&#45;&gt;17 -->
<g id="edge28" class="edge">
<title>21&#45;&gt;17</title>
<path fill="none" stroke="grey" stroke-width="2" d="M582.03,-215.15C567.51,-206.68 549.92,-196.42 534.2,-187.25"/>
<polygon fill="grey" stroke="grey" stroke-width="2" points="535.56,-183.83 525.16,-181.81 532.03,-189.87 535.56,-183.83"/>
</g>
<!-- 22&#45;&gt;0 -->
<g id="edge2" class="edge">
<title>22&#45;&gt;0</title>
<path fill="none" stroke="grey" stroke-width="2" d="M573.97,-81.24C646.11,-67.7 794.08,-39.93 865.42,-26.55"/>
<polygon fill="grey" stroke="grey" stroke-width="2" points="866.63,-29.5 875.81,-24.22 865.33,-22.62 866.63,-29.5"/>
</g>
<!-- 23&#45;&gt;0 -->
<g id="edge3" class="edge">
<title>23&#45;&gt;0</title>
<path fill="none" stroke="grey" stroke-width="2" d="M905.62,-215.12C905.62,-178.62 905.62,-95.13 905.62,-49.74"/>
<polygon fill="grey" stroke="grey" stroke-width="2" points="909.13,-49.98 905.62,-39.98 902.13,-49.98 909.13,-49.98"/>
</g>
<!-- 24&#45;&gt;0 -->
<g id="edge4" class="edge">
<title>24&#45;&gt;0</title>
<path fill="none" stroke="grey" stroke-width="2" d="M1061.42,-215.12C1031.86,-177.91 963.51,-91.87 927.98,-47.15"/>
<polygon fill="grey" stroke="grey" stroke-width="2" points="929.87,-44.63 920.91,-38.98 924.39,-48.98 929.87,-44.63"/>
</g>
<!-- 25&#45;&gt;0 -->
<g id="edge5" class="edge">
<title>25&#45;&gt;0</title>
<path fill="none" stroke="grey" stroke-width="2" d="M1217.22,-215.12C1156.29,-176.77 1013,-86.58 944.03,-43.17"/>
<polygon fill="grey" stroke="grey" stroke-width="2" points="945.56,-39.74 935.23,-37.38 941.83,-45.67 945.56,-39.74"/>
</g>
</g>
</svg>
