<?xml version="1.0" encoding="UTF-8" standalone="no"?>
<!DOCTYPE svg PUBLIC "-//W3C//DTD SVG 1.1//EN"
 "http://www.w3.org/Graphics/SVG/1.1/DTD/svg11.dtd">
<!-- Generated by graphviz version 8.0.5 (20230506.1012)
 -->
<!-- Title: snakemake_dag Pages: 1 -->
<svg width="494pt" height="620pt"
 viewBox="0.00 0.00 494.38 620.00" xmlns="http://www.w3.org/2000/svg" xmlns:xlink="http://www.w3.org/1999/xlink">
<g id="graph0" class="graph" transform="scale(1 1) rotate(0) translate(4 616)">
<title>snakemake_dag</title>
<polygon fill="white" stroke="none" points="-4,4 -4,-616 490.38,-616 490.38,4 -4,4"/>
<!-- 0 -->
<g id="node1" class="node">
<title>0</title>
<path fill="none" stroke="#d85656" stroke-width="2" d="M269.88,-36C269.88,-36 239.88,-36 239.88,-36 233.88,-36 227.88,-30 227.88,-24 227.88,-24 227.88,-12 227.88,-12 227.88,-6 233.88,0 239.88,0 239.88,0 269.88,0 269.88,0 275.88,0 281.88,-6 281.88,-12 281.88,-12 281.88,-24 281.88,-24 281.88,-30 275.88,-36 269.88,-36"/>
<text text-anchor="middle" x="254.88" y="-14.88" font-family="sans" font-size="10.00">all</text>
</g>
<!-- 1 -->
<g id="node2" class="node">
<title>1</title>
<path fill="none" stroke="#56d8a2" stroke-width="2" d="M339.25,-108C339.25,-108 274.5,-108 274.5,-108 268.5,-108 262.5,-102 262.5,-96 262.5,-96 262.5,-84 262.5,-84 262.5,-78 268.5,-72 274.5,-72 274.5,-72 339.25,-72 339.25,-72 345.25,-72 351.25,-78 351.25,-84 351.25,-84 351.25,-96 351.25,-96 351.25,-102 345.25,-108 339.25,-108"/>
<text text-anchor="middle" x="306.88" y="-86.88" font-family="sans" font-size="10.00">plot_mosdepth</text>
</g>
<!-- 1&#45;&gt;0 -->
<g id="edge1" class="edge">
<title>1&#45;&gt;0</title>
<path fill="none" stroke="grey" stroke-width="2" d="M293.75,-71.34C288.31,-64.01 281.87,-55.34 275.81,-47.18"/>
<polygon fill="grey" stroke="grey" stroke-width="2" points="277.95,-44.84 269.17,-38.9 272.33,-49.02 277.95,-44.84"/>
</g>
<!-- 2 -->
<g id="node3" class="node">
<title>2</title>
<path fill="none" stroke="#78d856" stroke-width="2" d="M327.25,-180C327.25,-180 286.5,-180 286.5,-180 280.5,-180 274.5,-174 274.5,-168 274.5,-168 274.5,-156 274.5,-156 274.5,-150 280.5,-144 286.5,-144 286.5,-144 327.25,-144 327.25,-144 333.25,-144 339.25,-150 339.25,-156 339.25,-156 339.25,-168 339.25,-168 339.25,-174 333.25,-180 327.25,-180"/>
<text text-anchor="middle" x="306.88" y="-158.88" font-family="sans" font-size="10.00">mosdepth</text>
</g>
<!-- 2&#45;&gt;1 -->
<g id="edge3" class="edge">
<title>2&#45;&gt;1</title>
<path fill="none" stroke="grey" stroke-width="2" d="M306.88,-143.34C306.88,-136.75 306.88,-129.08 306.88,-121.67"/>
<polygon fill="grey" stroke="grey" stroke-width="2" points="310.38,-121.9 306.88,-111.9 303.38,-121.9 310.38,-121.9"/>
</g>
<!-- 12 -->
<g id="node13" class="node">
<title>12</title>
<path fill="none" stroke="#56d8c9" stroke-width="2" d="M232.5,-108C232.5,-108 175.25,-108 175.25,-108 169.25,-108 163.25,-102 163.25,-96 163.25,-96 163.25,-84 163.25,-84 163.25,-78 169.25,-72 175.25,-72 175.25,-72 232.5,-72 232.5,-72 238.5,-72 244.5,-78 244.5,-84 244.5,-84 244.5,-96 244.5,-96 244.5,-102 238.5,-108 232.5,-108"/>
<text text-anchor="middle" x="203.88" y="-86.88" font-family="sans" font-size="10.00">sample_stats</text>
</g>
<!-- 2&#45;&gt;12 -->
<g id="edge16" class="edge">
<title>2&#45;&gt;12</title>
<path fill="none" stroke="grey" stroke-width="2" d="M280.62,-143.15C268.51,-134.93 253.93,-125.02 240.75,-116.06"/>
<polygon fill="grey" stroke="grey" stroke-width="2" points="242.32,-112.54 232.08,-109.81 238.39,-118.33 242.32,-112.54"/>
</g>
<!-- 3 -->
<g id="node4" class="node">
<title>3</title>
<path fill="none" stroke="#56d87b" stroke-width="2" d="M323.38,-324C323.38,-324 220.38,-324 220.38,-324 214.38,-324 208.38,-318 208.38,-312 208.38,-312 208.38,-300 208.38,-300 208.38,-294 214.38,-288 220.38,-288 220.38,-288 323.38,-288 323.38,-288 329.38,-288 335.38,-294 335.38,-300 335.38,-300 335.38,-312 335.38,-312 335.38,-318 329.38,-324 323.38,-324"/>
<text text-anchor="middle" x="271.88" y="-302.88" font-family="sans" font-size="10.00">picard_markduplicates</text>
</g>
<!-- 3&#45;&gt;2 -->
<g id="edge4" class="edge">
<title>3&#45;&gt;2</title>
<path fill="none" stroke="grey" stroke-width="2" d="M312.36,-287.18C326.57,-278.71 340.95,-267.08 348.88,-252 359.51,-231.77 347.57,-208.39 333.74,-190.67"/>
<polygon fill="grey" stroke="grey" stroke-width="2" points="335.66,-188.33 326.53,-182.95 330.31,-192.85 335.66,-188.33"/>
</g>
<!-- 9 -->
<g id="node10" class="node">
<title>9</title>
<path fill="none" stroke="#56a2d8" stroke-width="2" d="M327.5,-252C327.5,-252 258.25,-252 258.25,-252 252.25,-252 246.25,-246 246.25,-240 246.25,-240 246.25,-228 246.25,-228 246.25,-222 252.25,-216 258.25,-216 258.25,-216 327.5,-216 327.5,-216 333.5,-216 339.5,-222 339.5,-228 339.5,-228 339.5,-240 339.5,-240 339.5,-246 333.5,-252 327.5,-252"/>
<text text-anchor="middle" x="292.88" y="-230.88" font-family="sans" font-size="10.00">samtools_index</text>
</g>
<!-- 3&#45;&gt;9 -->
<g id="edge12" class="edge">
<title>3&#45;&gt;9</title>
<path fill="none" stroke="grey" stroke-width="2" d="M277.17,-287.34C279.2,-280.59 281.57,-272.69 283.84,-265.11"/>
<polygon fill="grey" stroke="grey" stroke-width="2" points="287.98,-265.49 287.5,-254.9 281.28,-263.47 287.98,-265.49"/>
</g>
<!-- 3&#45;&gt;12 -->
<g id="edge15" class="edge">
<title>3&#45;&gt;12</title>
<path fill="none" stroke="grey" stroke-width="2" d="M257.73,-287.33C250.49,-277.46 242.11,-264.63 236.88,-252 218.9,-208.64 210.4,-154.53 206.62,-121.38"/>
<polygon fill="grey" stroke="grey" stroke-width="2" points="209.8,-121.14 205.28,-111.56 202.84,-121.87 209.8,-121.14"/>
</g>
<!-- 13 -->
<g id="node14" class="node">
<title>13</title>
<path fill="none" stroke="#59d856" stroke-width="2" d="M139.75,-252C139.75,-252 12,-252 12,-252 6,-252 0,-246 0,-240 0,-240 0,-228 0,-228 0,-222 6,-216 12,-216 12,-216 139.75,-216 139.75,-216 145.75,-216 151.75,-222 151.75,-228 151.75,-228 151.75,-240 151.75,-240 151.75,-246 145.75,-252 139.75,-252"/>
<text text-anchor="middle" x="75.88" y="-230.88" font-family="sans" font-size="10.00">picard_collectgcbiasmetrics</text>
</g>
<!-- 3&#45;&gt;13 -->
<g id="edge19" class="edge">
<title>3&#45;&gt;13</title>
<path fill="none" stroke="grey" stroke-width="2" d="M221.65,-287.06C196.18,-277.97 165,-266.83 138.03,-257.2"/>
<polygon fill="grey" stroke="grey" stroke-width="2" points="138.56,-253.96 127.96,-253.89 136.2,-260.55 138.56,-253.96"/>
</g>
<!-- 4 -->
<g id="node5" class="node">
<title>4</title>
<path fill="none" stroke="#c6d856" stroke-width="2" d="M267.38,-396C267.38,-396 224.38,-396 224.38,-396 218.38,-396 212.38,-390 212.38,-384 212.38,-384 212.38,-372 212.38,-372 212.38,-366 218.38,-360 224.38,-360 224.38,-360 267.38,-360 267.38,-360 273.38,-360 279.38,-366 279.38,-372 279.38,-372 279.38,-384 279.38,-384 279.38,-390 273.38,-396 267.38,-396"/>
<text text-anchor="middle" x="245.88" y="-374.88" font-family="sans" font-size="10.00">bwa_mem</text>
</g>
<!-- 4&#45;&gt;3 -->
<g id="edge7" class="edge">
<title>4&#45;&gt;3</title>
<path fill="none" stroke="grey" stroke-width="2" d="M252.44,-359.34C254.97,-352.51 257.95,-344.5 260.79,-336.83"/>
<polygon fill="grey" stroke="grey" stroke-width="2" points="264.02,-337.49 264.23,-326.9 257.46,-335.06 264.02,-337.49"/>
</g>
<!-- 4&#45;&gt;12 -->
<g id="edge17" class="edge">
<title>4&#45;&gt;12</title>
<path fill="none" stroke="grey" stroke-width="2" d="M224.12,-359.23C214.41,-349.89 204.02,-337.57 198.88,-324 172.8,-255.29 186.24,-166.78 196.25,-121.16"/>
<polygon fill="grey" stroke="grey" stroke-width="2" points="200.29,-121.24 199.14,-110.71 193.47,-119.66 200.29,-121.24"/>
</g>
<!-- 5 -->
<g id="node6" class="node">
<title>5</title>
<path fill="none" stroke="#9fd856" stroke-width="2" d="M208.88,-468C208.88,-468 178.88,-468 178.88,-468 172.88,-468 166.88,-462 166.88,-456 166.88,-456 166.88,-444 166.88,-444 166.88,-438 172.88,-432 178.88,-432 178.88,-432 208.88,-432 208.88,-432 214.88,-432 220.88,-438 220.88,-444 220.88,-444 220.88,-456 220.88,-456 220.88,-462 214.88,-468 208.88,-468"/>
<text text-anchor="middle" x="193.88" y="-446.88" font-family="sans" font-size="10.00">fastp</text>
</g>
<!-- 5&#45;&gt;4 -->
<g id="edge9" class="edge">
<title>5&#45;&gt;4</title>
<path fill="none" stroke="grey" stroke-width="2" d="M207,-431.34C212.44,-424.01 218.88,-415.34 224.94,-407.18"/>
<polygon fill="grey" stroke="grey" stroke-width="2" points="228.42,-409.02 231.58,-398.9 222.8,-404.84 228.42,-409.02"/>
</g>
<!-- 6 -->
<g id="node7" class="node">
<title>6</title>
<path fill="none" stroke="#d8c356" stroke-width="2" d="M295.12,-468C295.12,-468 250.62,-468 250.62,-468 244.62,-468 238.62,-462 238.62,-456 238.62,-456 238.62,-444 238.62,-444 238.62,-438 244.62,-432 250.62,-432 250.62,-432 295.12,-432 295.12,-432 301.12,-432 307.12,-438 307.12,-444 307.12,-444 307.12,-456 307.12,-456 307.12,-462 301.12,-468 295.12,-468"/>
<text text-anchor="middle" x="272.88" y="-446.88" font-family="sans" font-size="10.00">bwa_index</text>
</g>
<!-- 6&#45;&gt;4 -->
<g id="edge8" class="edge">
<title>6&#45;&gt;4</title>
<path fill="none" stroke="grey" stroke-width="2" d="M266.06,-431.34C263.43,-424.51 260.34,-416.5 257.38,-408.83"/>
<polygon fill="grey" stroke="grey" stroke-width="2" points="260.64,-406.97 253.78,-398.9 254.11,-409.49 260.64,-406.97"/>
</g>
<!-- 7 -->
<g id="node8" class="node">
<title>7</title>
<path fill="none" stroke="#d8a456" stroke-width="2" d="M307.88,-540C307.88,-540 237.88,-540 237.88,-540 231.88,-540 225.88,-534 225.88,-528 225.88,-528 225.88,-516 225.88,-516 225.88,-510 231.88,-504 237.88,-504 237.88,-504 307.88,-504 307.88,-504 313.88,-504 319.88,-510 319.88,-516 319.88,-516 319.88,-528 319.88,-528 319.88,-534 313.88,-540 307.88,-540"/>
<text text-anchor="middle" x="272.88" y="-518.88" font-family="sans" font-size="10.00">bgzip_reference</text>
</g>
<!-- 7&#45;&gt;6 -->
<g id="edge10" class="edge">
<title>7&#45;&gt;6</title>
<path fill="none" stroke="grey" stroke-width="2" d="M272.88,-503.34C272.88,-496.75 272.88,-489.08 272.88,-481.67"/>
<polygon fill="grey" stroke="grey" stroke-width="2" points="276.38,-481.9 272.88,-471.9 269.38,-481.9 276.38,-481.9"/>
</g>
<!-- 11 -->
<g id="node12" class="node">
<title>11</title>
<path fill="none" stroke="#56c9d8" stroke-width="2" d="M415.38,-468C415.38,-468 348.38,-468 348.38,-468 342.38,-468 336.38,-462 336.38,-456 336.38,-456 336.38,-444 336.38,-444 336.38,-438 342.38,-432 348.38,-432 348.38,-432 415.38,-432 415.38,-432 421.38,-432 427.38,-438 427.38,-444 427.38,-444 427.38,-456 427.38,-456 427.38,-462 421.38,-468 415.38,-468"/>
<text text-anchor="middle" x="381.88" y="-446.88" font-family="sans" font-size="10.00">samtools_faidx</text>
</g>
<!-- 7&#45;&gt;11 -->
<g id="edge14" class="edge">
<title>7&#45;&gt;11</title>
<path fill="none" stroke="grey" stroke-width="2" d="M300.66,-503.15C313.6,-494.84 329.21,-484.82 343.27,-475.79"/>
<polygon fill="grey" stroke="grey" stroke-width="2" points="345.62,-478.16 352.14,-469.81 341.83,-472.27 345.62,-478.16"/>
</g>
<!-- 8 -->
<g id="node9" class="node">
<title>8</title>
<path fill="none" stroke="#567bd8" stroke-width="2" d="M216.75,-612C216.75,-612 149,-612 149,-612 143,-612 137,-606 137,-600 137,-600 137,-588 137,-588 137,-582 143,-576 149,-576 149,-576 216.75,-576 216.75,-576 222.75,-576 228.75,-582 228.75,-588 228.75,-588 228.75,-600 228.75,-600 228.75,-606 222.75,-612 216.75,-612"/>
<text text-anchor="middle" x="182.88" y="-590.88" font-family="sans" font-size="10.00">wget_reference</text>
</g>
<!-- 8&#45;&gt;7 -->
<g id="edge11" class="edge">
<title>8&#45;&gt;7</title>
<path fill="none" stroke="grey" stroke-width="2" d="M205.59,-575.34C215.95,-567.27 228.43,-557.57 239.81,-548.72"/>
<polygon fill="grey" stroke="grey" stroke-width="2" points="242.11,-550.8 247.86,-541.9 237.82,-545.28 242.11,-550.8"/>
</g>
<!-- 8&#45;&gt;13 -->
<g id="edge20" class="edge">
<title>8&#45;&gt;13</title>
<path fill="none" stroke="grey" stroke-width="2" d="M168.34,-575.43C148.63,-549.78 115.88,-499.79 115.88,-451 115.88,-451 115.88,-451 115.88,-377 115.88,-337.02 101,-293 89.4,-264.73"/>
<polygon fill="grey" stroke="grey" stroke-width="2" points="92.5,-262.75 85.36,-254.92 86.06,-265.5 92.5,-262.75"/>
</g>
<!-- 9&#45;&gt;2 -->
<g id="edge5" class="edge">
<title>9&#45;&gt;2</title>
<path fill="none" stroke="grey" stroke-width="2" d="M296.41,-215.34C297.74,-208.67 299.3,-200.89 300.8,-193.39"/>
<polygon fill="grey" stroke="grey" stroke-width="2" points="304.77,-193.39 303.29,-182.9 297.9,-192.02 304.77,-193.39"/>
</g>
<!-- 10 -->
<g id="node11" class="node">
<title>10</title>
<path fill="none" stroke="#d87d56" stroke-width="2" d="M474.38,-324C474.38,-324 365.38,-324 365.38,-324 359.38,-324 353.38,-318 353.38,-312 353.38,-312 353.38,-300 353.38,-300 353.38,-294 359.38,-288 365.38,-288 365.38,-288 474.38,-288 474.38,-288 480.38,-288 486.38,-294 486.38,-300 486.38,-300 486.38,-312 486.38,-312 486.38,-318 480.38,-324 474.38,-324"/>
<text text-anchor="middle" x="419.88" y="-302.88" font-family="sans" font-size="10.00">bedtools_makewindows</text>
</g>
<!-- 10&#45;&gt;2 -->
<g id="edge6" class="edge">
<title>10&#45;&gt;2</title>
<path fill="none" stroke="grey" stroke-width="2" d="M411.12,-287.28C401.43,-268.56 384.68,-238.68 365.88,-216 358.07,-206.58 348.57,-197.31 339.5,-189.23"/>
<polygon fill="grey" stroke="grey" stroke-width="2" points="341.78,-185.85 331.92,-181.97 337.21,-191.15 341.78,-185.85"/>
</g>
<!-- 11&#45;&gt;10 -->
<g id="edge13" class="edge">
<title>11&#45;&gt;10</title>
<path fill="none" stroke="grey" stroke-width="2" d="M386.69,-431.02C393,-407.44 404.16,-365.73 411.78,-337.25"/>
<polygon fill="grey" stroke="grey" stroke-width="2" points="415.9,-337.4 415.1,-326.84 409.14,-335.59 415.9,-337.4"/>
</g>
<!-- 12&#45;&gt;0 -->
<g id="edge2" class="edge">
<title>12&#45;&gt;0</title>
<path fill="none" stroke="grey" stroke-width="2" d="M216.74,-71.34C222.08,-64.01 228.4,-55.34 234.35,-47.18"/>
<polygon fill="grey" stroke="grey" stroke-width="2" points="237.77,-49.05 240.83,-38.9 232.11,-44.92 237.77,-49.05"/>
</g>
<!-- 13&#45;&gt;12 -->
<g id="edge18" class="edge">
<title>13&#45;&gt;12</title>
<path fill="none" stroke="grey" stroke-width="2" d="M92.09,-215.02C114.11,-190.58 153.68,-146.69 179.35,-118.21"/>
<polygon fill="grey" stroke="grey" stroke-width="2" points="181.7,-120.61 185.8,-110.84 176.5,-115.92 181.7,-120.61"/>
</g>
</g>
</svg>
